<svg width="34" height="34" viewBox="0 0 34 34" fill="none" xmlns="http://www.w3.org/2000/svg">
<path d="M23.1872 0C19.7702 0 16.9692 2.5262 16.9692 5.60932V7.79212C16.1675 7.96688 15.5742 8.61152 15.5742 9.39012V19.8308C15.5742 20.7441 16.3892 21.4792 17.4014 21.4792H28.9723C29.9844 21.4792 30.7994 20.7441 30.7994 19.8308V9.38978C30.7994 8.61118 30.2061 7.96688 29.4044 7.79212V5.60932C29.4047 2.52654 26.6042 0 23.1872 0ZM23.1872 2.54898C25.0769 2.54898 26.5783 3.90456 26.5783 5.60932V7.74146H19.796V5.61C19.796 3.9049 21.2974 2.54898 23.1872 2.54898ZM23.1872 11.286C24.2486 11.286 25.1095 12.1009 25.1095 13.1067C25.1085 13.7503 24.7491 14.3453 24.1643 14.6724L24.8943 16.4132C25.1377 16.9935 24.8338 17.7188 24.3476 17.7188H22.0261C21.8119 17.7184 21.6133 17.5692 21.497 17.322C21.4327 17.1797 21.3979 17.0258 21.3947 16.8697C21.3914 16.7135 21.4199 16.5583 21.4783 16.4135L22.2093 14.6727C21.6245 14.3453 21.2655 13.7499 21.2648 13.1067C21.2648 12.1009 22.1257 11.286 23.1872 11.286Z" fill="white"/>
<path fill-rule="evenodd" clip-rule="evenodd" d="M0.87924 1.7007C0.765238 1.69677 0.651611 1.71584 0.545131 1.75675C0.438651 1.79766 0.341495 1.85959 0.259451 1.93884C0.177408 2.01809 0.112155 2.11305 0.0675812 2.21805C0.0230072 2.32305 2.3743e-05 2.43595 0 2.55002L0 26.4486C2.71826e-05 26.6106 0.0463503 26.7692 0.133513 26.9058C0.220676 27.0424 0.345048 27.1512 0.49198 27.2194L11.2584 32.2208C11.3707 32.273 11.493 32.3 11.6168 32.3C11.7406 32.3 11.8629 32.273 11.9751 32.2208L22.3836 27.386L32.792 32.2208C33.3554 32.4826 34 32.0712 34 31.45V7.55142C34 7.38941 33.9537 7.23079 33.8665 7.09424C33.7793 6.95768 33.655 6.84888 33.508 6.78064L32.3 6.05032V30.1179L22.8895 25.7465L22.8725 22.7766H21.8525L21.8695 25.7496L12.1196 30.2794L11.9942 8.31336L15.4965 6.68646C15.4416 6.042 15.4796 5.39299 15.6094 4.75934L11.6164 6.61404L1.20802 1.77924C1.10479 1.73131 0.992986 1.7046 0.87924 1.7007ZM1.7 3.88214L10.9735 8.18994L11.0996 30.2729L1.7 25.9053V3.88214Z" fill="white"/>
</svg>
