<svg width="143" height="143" viewBox="0 0 143 143" fill="none" xmlns="http://www.w3.org/2000/svg">
<circle cx="71.5" cy="71.5" r="71.5" fill="#0F364A"/>
<path d="M73.2923 81.354C73.2923 81.8292 73.1036 82.2849 72.7676 82.6209C72.4315 82.9569 71.9758 83.1457 71.5007 83.1457C71.0255 83.1457 70.5698 82.9569 70.2338 82.6209C69.8977 82.2849 69.709 81.8292 69.709 81.354C69.709 80.8788 69.8977 80.4231 70.2338 80.0871C70.5698 79.7511 71.0255 79.5623 71.5007 79.5623C71.9758 79.5623 72.4315 79.7511 72.7676 80.0871C73.1036 80.4231 73.2923 80.8788 73.2923 81.354ZM72.8444 66.5728C72.8444 66.2164 72.7028 65.8746 72.4508 65.6226C72.1988 65.3706 71.857 65.229 71.5007 65.229C71.1443 65.229 70.8025 65.3706 70.5505 65.6226C70.2985 65.8746 70.1569 66.2164 70.1569 66.5728V74.6353C70.1569 74.9916 70.2985 75.3334 70.5505 75.5854C70.8025 75.8374 71.1443 75.979 71.5007 75.979C71.857 75.979 72.1988 75.8374 72.4508 75.5854C72.7028 75.3334 72.8444 74.9916 72.8444 74.6353V66.5728Z" fill="white"/>
<path d="M67.6228 55.8121C69.3482 52.8289 73.6518 52.8289 75.3771 55.8121L91.443 83.59C93.1684 86.5768 91.013 90.3124 87.5641 90.3124H55.4359C51.9851 90.3124 49.8316 86.5768 51.5569 83.59L67.6228 55.8121ZM73.0516 57.1576C72.8936 56.8862 72.6671 56.6609 72.3949 56.5043C72.1226 56.3478 71.814 56.2654 71.5 56.2654C71.1859 56.2654 70.8773 56.3478 70.6051 56.5043C70.3328 56.6609 70.1064 56.8862 69.9484 57.1576L53.8843 84.9356C53.7278 85.2082 53.6455 85.5171 53.6458 85.8314C53.6462 86.1458 53.729 86.4545 53.8861 86.7268C54.0432 86.9991 54.269 87.2253 54.541 87.3829C54.813 87.5405 55.1215 87.624 55.4359 87.6249H87.5641C87.8781 87.6238 88.1864 87.5403 88.4582 87.3828C88.7299 87.2253 88.9555 86.9993 89.1126 86.7272C89.2696 86.4552 89.3525 86.1468 89.3531 85.8327C89.3536 85.5187 89.2717 85.2099 89.1156 84.9374L73.0516 57.1576Z" fill="white"/>
</svg>
