<svg width="143" height="143" viewBox="0 0 143 143" fill="none" xmlns="http://www.w3.org/2000/svg">
<circle cx="71.5" cy="71.5" r="71.5" fill="#0F364A"/>
<path d="M65.5278 70.701C65.5278 70.213 65.1322 69.8174 64.6442 69.8174C61.0586 69.8174 58.1666 70.5958 56.0478 72.1306C49.8627 76.6121 49.5093 88.0881 49.5517 91.4979C49.5575 91.9817 49.9514 92.3709 50.4353 92.3709H50.4459C50.6805 92.3683 50.9045 92.2725 51.0685 92.1046C51.2324 91.9367 51.3228 91.7105 51.3197 91.4758C51.2923 89.2006 51.4434 77.6459 57.0851 73.5594C58.8965 72.2481 61.4403 71.5828 64.6451 71.5828C65.132 71.5823 65.5268 71.1879 65.5278 70.701Z" fill="white"/>
<path d="M69.5247 90.736C67.7142 92.0473 65.1739 92.7126 61.9656 92.7126C61.4776 92.7126 61.082 93.1082 61.082 93.5962C61.082 94.0842 61.4776 94.4798 61.9656 94.4798C65.5512 94.4798 68.4432 93.7013 70.5611 92.1665C70.8264 91.9851 70.9721 91.6739 70.9419 91.354C70.9116 91.0341 70.71 90.7558 70.4154 90.6274C70.1208 90.4989 69.7797 90.5405 69.5247 90.736Z" fill="white"/>
<path d="M91.4942 60.8311C91.5578 57.8879 91.1664 52.1499 87.549 48.6377C83.6047 44.7976 77.1165 44.8701 74.5099 45.0786C73.4306 45.145 72.5789 46.0213 72.5431 47.102C72.407 49.713 72.5166 56.2029 76.4618 60.0368C79.6109 63.0975 84.3831 63.6692 87.5066 63.6692C87.7831 63.6692 88.042 63.6639 88.2912 63.6559C88.8639 64.7425 89.3439 65.8755 89.7261 67.0427C89.836 67.4001 89.9102 67.7673 89.9479 68.1393C89.2444 68.0063 88.5717 67.7435 87.9643 67.3644L87.6259 67.1541C87.1526 66.8404 86.6547 66.5656 86.137 66.3323C82.5882 64.7302 78.4253 65.4047 75.5641 68.0456C75.4376 67.5816 75.2714 67.1293 75.0675 66.6937C74.8323 66.3108 74.3472 66.1654 73.9402 66.3558C73.5331 66.5462 73.3338 67.0117 73.477 67.4377C67.3467 65.9453 59.4934 65.2747 53.9781 69.272C46.6761 74.5567 45.9675 86.577 46.0011 91.4986C46.0095 93.3937 47.2256 95.0724 49.0238 95.6709C53.1898 97.1119 57.5543 97.8976 61.9613 98C65.7245 98 69.5601 97.2543 72.6385 95.0267C78.3641 90.8739 80.005 82.5965 80.4423 77.0847C80.4998 77.1554 80.5598 77.2234 80.6093 77.2985C80.8802 77.7045 81.4288 77.8141 81.8349 77.5432C82.2409 77.2724 82.3504 76.7237 82.0796 76.3177C81.577 75.6091 80.91 75.033 80.1357 74.6389C80.0946 74.6095 80.0508 74.5841 80.005 74.5629C79.6257 74.3658 79.233 74.1957 78.8298 74.054C79.0835 73.8912 79.3467 73.7437 79.6179 73.6122C80.2756 73.2585 81.0323 73.1341 81.7686 73.2587C82.3562 73.4421 82.9021 73.7393 83.3749 74.1335C83.5932 74.2899 83.8105 74.4436 84.0314 74.5868C84.8047 75.1008 85.6368 75.5202 86.5099 75.8362C87.536 76.1983 88.6151 76.3876 89.7032 76.3964C92.2076 76.4684 94.576 75.2592 95.9865 73.1886C97.397 71.1179 97.655 68.4712 96.6711 66.1671C95.6774 63.801 93.8291 61.896 91.4942 60.8311ZM77.6944 58.7697C74.267 55.4368 74.1874 49.5645 74.3076 47.193C74.3037 47.0998 74.3383 47.0091 74.4034 46.9423C74.4684 46.8754 74.5581 46.8383 74.6513 46.8396C75.1461 46.8007 75.7938 46.7662 76.5413 46.7662C79.3688 46.7662 83.61 47.2663 86.3173 49.9012C88.9884 52.498 89.6254 56.6323 89.7191 59.4554C87.188 55.2149 83.5133 51.7735 79.1161 49.5257C78.6876 49.2919 78.1508 49.4498 77.917 49.8782C77.6833 50.3067 77.8411 50.8435 78.2696 51.0772C85.3745 54.9535 88.065 59.7691 88.9495 61.857C86.3729 62.0178 80.9371 61.9224 77.6944 58.7697ZM71.6029 93.5962C64.9531 98.4109 53.9922 95.48 49.5849 93.9947C48.5033 93.6362 47.7719 92.6265 47.7682 91.4871C47.7364 86.8386 48.377 75.5066 55.0136 70.7025C60.5387 66.7008 69.1139 68.0968 74.0655 69.4116C74.3431 70.8863 74.1409 72.4111 73.4885 73.7624C73.3519 74.0358 73.3663 74.3604 73.5265 74.6206C73.6868 74.8809 73.9701 75.0399 74.2758 75.0409C75.8079 75.0582 77.3243 75.3518 78.752 75.9077C78.4657 81.0334 77.1298 89.5892 71.6029 93.5962ZM94.9517 71.4554C93.8914 73.6935 90.9755 75.4933 87.0878 74.1627C86.3476 73.892 85.6423 73.5343 84.9866 73.0971C84.7887 72.9698 84.5952 72.832 84.3999 72.6924C83.7364 72.1491 82.9665 71.7509 82.1397 71.5234C81.0226 71.3128 79.8671 71.484 78.8589 72.0094C78.0438 72.415 77.2771 72.9111 76.5731 73.4885C76.2055 73.4284 75.8539 73.3789 75.5508 73.3489C75.8721 72.3156 75.9979 71.2315 75.9219 70.1521C78.5576 67.3423 82.2351 66.4675 85.4169 67.9475C85.8578 68.1488 86.2818 68.3852 86.6848 68.6544L87.0383 68.8735C87.1266 68.9292 89.2738 70.2183 90.6292 69.8384C91.0149 69.736 91.3393 69.4754 91.5225 69.1209C91.796 68.2758 91.7587 67.3609 91.4173 66.5409C91.0801 65.4721 90.6551 64.433 90.1467 63.4342C90.3356 63.3597 90.5124 63.2579 90.6716 63.132L90.7052 63.1037C90.8742 62.9657 91.0198 62.8013 91.1364 62.6169C92.8856 63.5154 94.2622 65.0018 95.0241 66.8148C95.6553 68.3027 95.629 69.9879 94.9517 71.4554Z" fill="white"/>
</svg>


