<svg width="551" height="715" viewBox="0 0 551 715" fill="none" xmlns="http://www.w3.org/2000/svg">
<g opacity="0.6">
<path d="M455.172 143.041C457.237 142.778 458.841 141.038 458.841 138.9C458.841 136.583 456.964 134.707 454.647 134.707C452.331 134.707 450.454 136.583 450.454 138.9C450.454 141.038 452.058 142.778 454.123 143.041V252.944L380.742 326.325V354.63L334.973 400.398C333.653 399.13 331.87 398.354 329.9 398.354C325.843 398.354 322.562 401.635 322.562 405.692C322.562 409.749 325.843 413.03 329.9 413.03C333.957 413.03 337.238 409.749 337.238 405.692C337.238 403.983 336.651 402.422 335.676 401.185L381.791 355.07V326.766L455.172 253.385V143.041Z" fill="#0071BC"/>
<path d="M428.964 330.739C433.021 330.739 436.302 327.458 436.302 323.401C436.302 319.344 433.021 316.062 428.964 316.062C424.907 316.062 421.626 319.344 421.626 323.401C421.626 324.973 422.119 326.42 422.957 327.615L402.232 348.34V470.687H403.281V348.78L423.628 328.432C424.97 329.848 426.857 330.739 428.964 330.739Z" fill="#0071BC"/>
<path d="M76.7357 258.406C74.9011 258.406 73.2239 259.088 71.9344 260.199L52.6248 240.889V139.948H57.8663V128.417H46.335V139.948H51.5765V241.329L71.1902 260.943C70.079 262.233 69.3976 263.91 69.3976 265.744C69.3976 269.801 72.6788 273.082 76.7357 273.082C80.7926 273.082 84.0738 269.801 84.0738 265.744C84.0738 261.687 80.7926 258.406 76.7357 258.406ZM47.3833 129.465H56.818V138.9H47.3833V129.465Z" fill="#0071BC"/>
<path d="M455.172 279.341C458.684 279.068 461.462 276.133 461.462 272.558C461.462 268.805 458.401 265.744 454.648 265.744C450.895 265.744 447.834 268.805 447.834 272.558C447.834 276.311 450.612 279.079 454.124 279.341V341.002L432.738 362.387C431.91 361.674 430.851 361.234 429.677 361.234C427.078 361.234 424.96 363.351 424.96 365.951C424.96 368.551 427.078 370.669 429.677 370.669C432.277 370.669 434.395 368.551 434.395 365.951C434.395 364.903 434.038 363.938 433.462 363.152L455.172 341.442V279.351V279.341ZM429.677 369.61C427.654 369.61 426.008 367.964 426.008 365.941C426.008 363.917 427.654 362.272 429.677 362.272C431.701 362.272 433.346 363.917 433.346 365.941C433.346 367.964 431.701 369.61 429.677 369.61ZM448.882 272.558C448.882 269.382 451.471 266.792 454.648 266.792C457.824 266.792 460.413 269.382 460.413 272.558C460.413 275.734 457.824 278.324 454.648 278.324C451.471 278.324 448.882 275.734 448.882 272.558Z" fill="#0071BC"/>
<path d="M135.44 269.634V343.843H136.488V269.193L98.152 230.857C99.1793 229.662 99.7978 228.121 99.7978 226.433C99.7978 222.68 96.7368 219.619 92.9839 219.619C89.231 219.619 86.1699 222.68 86.1699 226.433C86.1699 230.186 89.231 233.247 92.9839 233.247C94.6716 233.247 96.2232 232.629 97.4077 231.601L135.44 269.634ZM87.2182 226.433C87.2182 223.257 89.8075 220.667 92.9839 220.667C96.1602 220.667 98.7495 223.257 98.7495 226.433C98.7495 229.609 96.1602 232.199 92.9839 232.199C89.8075 232.199 87.2182 229.609 87.2182 226.433Z" fill="#0071BC"/>
<path d="M253.898 404.12H263.333V394.685H253.898V404.12ZM254.947 395.733H262.285V403.071H254.947V395.733Z" fill="#0071BC"/>
<path d="M253.898 417.748H263.333V408.313H253.898V417.748ZM254.947 409.361H262.285V416.699H254.947V409.361Z" fill="#0071BC"/>
<path d="M253.898 431.376H263.333V421.941H253.898V431.376ZM254.947 422.989H262.285V430.327H254.947V422.989Z" fill="#0071BC"/>
<path d="M253.898 445.004H263.333V435.569H253.898V445.004ZM254.947 436.617H262.285V443.955H254.947V436.617Z" fill="#0071BC"/>
<path d="M29.5617 527.819H20.127V537.254H29.5617V527.819ZM28.5134 536.206H21.1753V528.868H28.5134V536.206Z" fill="#0071BC"/>
<path d="M29.5617 541.447H20.127V550.882H29.5617V541.447ZM28.5134 549.834H21.1753V542.496H28.5134V549.834Z" fill="#0071BC"/>
<path d="M29.5617 555.075H20.127V564.51H29.5617V555.075ZM28.5134 563.462H21.1753V556.123H28.5134V563.462Z" fill="#0071BC"/>
<path d="M20.127 578.138H29.5617V568.703H20.127V578.138ZM21.1753 569.751H28.5134V577.09H21.1753V569.751Z" fill="#0071BC"/>
<path d="M425.819 118.982H417.433V127.368H425.819V118.982Z" fill="#0071BC"/>
<path d="M425.819 132.61H417.433V140.996H425.819V132.61Z" fill="#0071BC"/>
<path d="M425.819 146.238H417.433V154.624H425.819V146.238Z" fill="#0071BC"/>
<path d="M425.819 159.866H417.433V168.252H425.819V159.866Z" fill="#0071BC"/>
<path d="M465.655 665.146H457.269V673.533H465.655V665.146Z" fill="#0071BC"/>
<path d="M465.655 678.774H457.269V687.161H465.655V678.774Z" fill="#0071BC"/>
<path d="M465.655 692.402H457.269V700.789H465.655V692.402Z" fill="#0071BC"/>
<path d="M465.655 706.03H457.269V714.417H465.655V706.03Z" fill="#0071BC"/>
<path d="M271.195 330.739C267.442 330.739 264.381 333.8 264.381 337.553C264.381 339.66 265.335 341.536 266.844 342.794L190.077 433.137L189.952 433.284V545.431L124.957 610.425V678.785C122.64 678.785 120.764 680.661 120.764 682.978C120.764 685.295 122.64 687.171 124.957 687.171C127.274 687.171 129.15 685.295 129.15 682.978C129.15 681.028 127.808 679.404 126.005 678.932V610.866L191 545.871V433.682L267.704 343.413C268.731 344.031 269.916 344.388 271.195 344.388C274.948 344.388 278.009 341.327 278.009 337.574C278.009 333.821 274.948 330.76 271.195 330.76V330.739ZM271.195 343.318C268.018 343.318 265.429 340.729 265.429 337.553C265.429 334.376 268.018 331.787 271.195 331.787C274.371 331.787 276.96 334.376 276.96 337.553C276.96 340.729 274.371 343.318 271.195 343.318Z" fill="#0071BC"/>
<path d="M329.376 13.5965V47.2993L353.015 70.9385V309.951H348.591L353.539 316.744L358.487 309.951H354.063V70.4982L330.424 46.859V13.5965C333.936 13.3239 336.714 10.3887 336.714 6.81395C336.714 3.06104 333.653 0 329.9 0C326.147 0 323.086 3.06104 323.086 6.81395C323.086 10.5669 325.864 13.3344 329.376 13.5965ZM329.9 1.0483C333.076 1.0483 335.666 3.6376 335.666 6.81395C335.666 9.9903 333.076 12.5796 329.9 12.5796C326.724 12.5796 324.134 9.9903 324.134 6.81395C324.134 3.6376 326.724 1.0483 329.9 1.0483Z" fill="#0071BC"/>
<path d="M34.279 262.599C30.5261 262.599 27.4651 265.66 27.4651 269.413C27.4651 270.839 27.9054 272.16 28.6496 273.25L0.733398 301.166V610.845L30.61 640.721V673.522H26.4063L31.3543 680.315L36.3022 673.522H31.6583V640.281L1.7817 610.404V301.606L29.3206 274.068C30.5681 275.388 32.3292 276.227 34.279 276.227C38.0319 276.227 41.093 273.166 41.093 269.413C41.093 265.66 38.0319 262.599 34.279 262.599ZM34.279 275.179C31.1027 275.179 28.5134 272.589 28.5134 269.413C28.5134 266.237 31.1027 263.647 34.279 263.647C37.4554 263.647 40.0447 266.237 40.0447 269.413C40.0447 272.589 37.4554 275.179 34.279 275.179Z" fill="#0071BC"/>
<path d="M157.455 619.021C159.771 619.021 161.648 617.144 161.648 614.828C161.648 612.512 159.771 610.635 157.455 610.635C155.139 610.635 153.262 612.512 153.262 614.828C153.262 617.144 155.139 619.021 157.455 619.021Z" fill="#0071BC"/>
<path d="M157.455 632.649C159.771 632.649 161.648 630.772 161.648 628.456C161.648 626.14 159.771 624.263 157.455 624.263C155.139 624.263 153.262 626.14 153.262 628.456C153.262 630.772 155.139 632.649 157.455 632.649Z" fill="#0071BC"/>
<path d="M157.455 646.277C159.771 646.277 161.648 644.4 161.648 642.084C161.648 639.768 159.771 637.891 157.455 637.891C155.139 637.891 153.262 639.768 153.262 642.084C153.262 644.4 155.139 646.277 157.455 646.277Z" fill="#0071BC"/>
<path d="M157.455 659.905C159.771 659.905 161.648 658.028 161.648 655.712C161.648 653.396 159.771 651.519 157.455 651.519C155.139 651.519 153.262 653.396 153.262 655.712C153.262 658.028 155.139 659.905 157.455 659.905Z" fill="#0071BC"/>
<path d="M118.667 123.395L155.358 86.7048V56.0001C158.912 55.4864 161.648 52.4358 161.648 48.7458C161.648 44.6889 158.367 41.4077 154.31 41.4077C150.253 41.4077 146.972 44.6889 146.972 48.7458C146.972 52.8027 150.253 56.0839 154.31 56.0839V86.2645L117.619 122.955V202.846H118.667V123.395Z" fill="#0071BC"/>
<path d="M335.142 706.083V626.139L281.678 572.676V533.008C283.743 532.746 285.347 531.006 285.347 528.868C285.347 526.551 283.471 524.674 281.154 524.674C278.837 524.674 276.961 526.551 276.961 528.868C276.961 531.006 278.565 532.746 280.63 533.008V573.116L334.093 626.58V706.083C332.028 706.345 330.424 708.085 330.424 710.224C330.424 712.54 332.301 714.417 334.617 714.417C336.934 714.417 338.811 712.54 338.811 710.224C338.811 708.085 337.207 706.345 335.142 706.083Z" fill="#0071BC"/>
<path d="M216.38 559.74L231.884 563.43V556.91L216.38 553.22V559.74Z" fill="#0071BC"/>
<path d="M216.38 569.951L231.884 573.641V567.12L216.38 563.43V569.951Z" fill="#0071BC"/>
<path d="M216.38 580.161L231.884 583.851V577.331L216.38 573.641V580.161Z" fill="#0071BC"/>
<path d="M216.38 590.382L231.884 594.062V587.541L216.38 583.851V590.382Z" fill="#0071BC"/>
<path d="M61.2314 637.314L76.7358 641.004V634.484L61.2314 630.794V637.314Z" fill="#0071BC"/>
<path d="M61.2314 647.525L76.7358 651.215V644.694L61.2314 641.004V647.525Z" fill="#0071BC"/>
<path d="M61.2314 657.735L76.7358 661.425V654.905L61.2314 651.215V657.735Z" fill="#0071BC"/>
<path d="M61.2314 667.956L76.7358 671.636V665.115L61.2314 661.425V667.956Z" fill="#0071BC"/>
<path d="M481.547 668.124V678.659H509.683V659.947H489.724L481.547 668.134V668.124ZM508.792 660.838V677.768H482.448V668.501L490.101 660.838H508.792Z" fill="#0071BC"/>
<path d="M489.053 666.153H488.162V669.025H489.053V666.153Z" fill="#0071BC"/>
<path d="M490.94 666.153H490.049V669.025H490.94V666.153Z" fill="#0071BC"/>
<path d="M494.714 666.153H493.823V669.025H494.714V666.153Z" fill="#0071BC"/>
<path d="M496.601 666.153H495.71V669.025H496.601V666.153Z" fill="#0071BC"/>
<path d="M502.272 666.153H501.381V669.025H502.272V666.153Z" fill="#0071BC"/>
<path d="M504.159 666.153H503.268V669.025H504.159V666.153Z" fill="#0071BC"/>
<path d="M506.045 666.153H505.154V669.025H506.045V666.153Z" fill="#0071BC"/>
<path d="M489.053 671.782H488.162V674.655H489.053V671.782Z" fill="#0071BC"/>
<path d="M494.714 671.782H493.823V674.655H494.714V671.782Z" fill="#0071BC"/>
<path d="M496.601 671.782H495.71V674.655H496.601V671.782Z" fill="#0071BC"/>
<path d="M500.385 671.782H499.494V674.655H500.385V671.782Z" fill="#0071BC"/>
<path d="M502.272 671.782H501.381V674.655H502.272V671.782Z" fill="#0071BC"/>
<path d="M506.045 671.782H505.154V674.655H506.045V671.782Z" fill="#0071BC"/>
<path d="M315.748 313.998H295.788L287.611 322.185V332.72H315.748V314.008V313.998ZM314.857 331.819H288.513V322.552L296.165 314.889H314.857V331.819Z" fill="#0071BC"/>
<path d="M295.118 320.214H294.227V323.086H295.118V320.214Z" fill="#0071BC"/>
<path d="M297.004 320.214H296.113V323.086H297.004V320.214Z" fill="#0071BC"/>
<path d="M300.779 320.214H299.888V323.086H300.779V320.214Z" fill="#0071BC"/>
<path d="M302.666 320.214H301.774V323.086H302.666V320.214Z" fill="#0071BC"/>
<path d="M308.336 320.214H307.445V323.086H308.336V320.214Z" fill="#0071BC"/>
<path d="M310.223 320.214H309.332V323.086H310.223V320.214Z" fill="#0071BC"/>
<path d="M312.111 320.214H311.22V323.086H312.111V320.214Z" fill="#0071BC"/>
<path d="M295.118 325.833H294.227V328.705H295.118V325.833Z" fill="#0071BC"/>
<path d="M300.779 325.833H299.888V328.705H300.779V325.833Z" fill="#0071BC"/>
<path d="M302.666 325.833H301.774V328.705H302.666V325.833Z" fill="#0071BC"/>
<path d="M306.45 325.833H305.559V328.705H306.45V325.833Z" fill="#0071BC"/>
<path d="M308.336 325.833H307.445V328.705H308.336V325.833Z" fill="#0071BC"/>
<path d="M312.111 325.833H311.22V328.705H312.111V325.833Z" fill="#0071BC"/>
<path d="M502.346 410.63V561.365H503.394V410.189L469.177 375.973C469.597 375.323 469.848 374.547 469.848 373.719C469.848 371.402 467.972 369.526 465.655 369.526C463.338 369.526 461.462 371.402 461.462 373.719C461.462 376.036 463.338 377.912 465.655 377.912C466.756 377.912 467.752 377.482 468.507 376.78L502.346 410.619V410.63Z" fill="#0071BC"/>
<path d="M284.77 647.65L289.718 640.857H279.822L284.77 647.65Z" fill="#0071BC"/>
<path d="M284.77 655.397L289.718 648.594H279.822L284.77 655.397Z" fill="#0071BC"/>
<path d="M284.77 663.134L289.718 656.341H279.822L284.77 663.134Z" fill="#0071BC"/>
<path d="M284.77 670.881L289.718 664.077H279.822L284.77 670.881Z" fill="#0071BC"/>
<path d="M284.77 678.617L289.718 671.824H279.822L284.77 678.617Z" fill="#0071BC"/>
<path d="M546.091 667.589V358.152L482.072 294.132V184.511C484.42 184.249 486.265 182.268 486.265 179.846C486.265 177.246 484.147 175.129 481.547 175.129C478.948 175.129 476.83 177.246 476.83 179.846C476.83 182.268 478.675 184.249 481.023 184.511V294.562L545.043 358.581V667.589H540.619L545.567 674.382L550.515 667.589H546.091ZM477.878 179.836C477.878 177.813 479.524 176.167 481.547 176.167C483.571 176.167 485.216 177.813 485.216 179.836C485.216 181.859 483.571 183.505 481.547 183.505C479.524 183.505 477.878 181.859 477.878 179.836Z" fill="#0071BC"/>
</g>
</svg>
