<svg width="129" height="145" viewBox="0 0 129 145" fill="none" xmlns="http://www.w3.org/2000/svg">
<path d="M64.0097 145C62.4121 145 60.84 144.58 59.4574 143.781L4.55238 112.084C1.74619 110.46 0 107.439 0 104.198V40.8024C0 37.5609 1.74619 34.5397 4.55238 32.9164L59.4574 1.21875C60.84 0.419906 62.4121 0 64.0097 0C65.6074 0 67.1795 0.419906 68.5621 1.21875L123.467 32.9164C126.273 34.5397 128.019 37.5609 128.019 40.8024V104.198C128.019 107.439 126.273 110.46 123.467 112.084L68.5621 143.781C67.1795 144.58 65.6074 145 64.0097 145Z" fill="black" fill-opacity="0.2"/>
<path d="M60.6705 3.31267L60.6705 3.31269L5.76553 35.0103C3.70097 36.2025 2.42622 38.4077 2.42622 40.7973V104.193C2.42622 106.577 3.70078 108.782 5.76611 109.98L60.6705 141.677L60.4815 142.004L60.6705 141.677C62.735 142.869 65.2845 142.869 67.349 141.677L67.538 142.004L67.3491 141.677L122.254 109.979C124.319 108.787 125.593 106.582 125.593 104.193V40.7973C125.593 38.4134 124.319 36.2079 122.254 35.0103L60.6705 3.31267ZM60.6705 3.31267C62.735 2.12048 65.2845 2.12048 67.349 3.31267L67.5224 3.01246L67.3491 3.31269L122.253 35.01L60.6705 3.31267Z" fill="#0E2E3F" stroke="#345360" stroke-width="0.755756"/>
<path d="M66.6361 81.1182C66.6361 81.6847 66.4111 82.228 66.0105 82.6285C65.6099 83.0291 65.0666 83.2542 64.5001 83.2542C63.9336 83.2542 63.3903 83.0291 62.9898 82.6285C62.5892 82.228 62.3641 81.6847 62.3641 81.1182C62.3641 80.5517 62.5892 80.0084 62.9898 79.6078C63.3903 79.2072 63.9336 78.9822 64.5001 78.9822C65.0666 78.9822 65.6099 79.2072 66.0105 79.6078C66.4111 80.0084 66.6361 80.5517 66.6361 81.1182ZM66.1021 63.4963C66.1021 63.0714 65.9333 62.664 65.6329 62.3635C65.3325 62.0631 64.925 61.8943 64.5001 61.8943C64.0752 61.8943 63.6678 62.0631 63.3673 62.3635C63.0669 62.664 62.8981 63.0714 62.8981 63.4963V73.1082C62.8981 73.5331 63.0669 73.9406 63.3673 74.241C63.6678 74.5414 64.0752 74.7102 64.5001 74.7102C64.925 74.7102 65.3325 74.5414 65.6329 74.241C65.9333 73.9406 66.1021 73.5331 66.1021 73.1082V63.4963Z" fill="white"/>
<path d="M59.8779 50.6673C61.9348 47.1109 67.0655 47.1109 69.1224 50.6673L88.2758 83.7836C90.3327 87.3443 87.7631 91.7978 83.6514 91.7978H45.3489C41.235 91.7978 38.6675 87.3443 40.7245 83.7836L59.8779 50.6673ZM66.3499 52.2714C66.1616 51.9478 65.8916 51.6793 65.567 51.4927C65.2424 51.306 64.8746 51.2078 64.5001 51.2078C64.1257 51.2078 63.7578 51.306 63.4333 51.4927C63.1087 51.6793 62.8387 51.9478 62.6504 52.2714L43.4991 85.3877C43.3125 85.7127 43.2145 86.081 43.2149 86.4557C43.2152 86.8305 43.314 87.1986 43.5013 87.5232C43.6886 87.8478 43.9578 88.1175 44.282 88.3054C44.6063 88.4933 44.9742 88.5928 45.3489 88.5938H83.6514C84.0258 88.5925 84.3934 88.493 84.7173 88.3053C85.0413 88.1175 85.3103 87.848 85.4975 87.5237C85.6847 87.1994 85.7836 86.8317 85.7842 86.4573C85.7848 86.0828 85.6872 85.7148 85.5011 85.3899L66.3499 52.2714Z" fill="white"/>
</svg>
