<svg width="17" height="19" viewBox="0 0 17 19" fill="none" xmlns="http://www.w3.org/2000/svg">
<path fill-rule="evenodd" clip-rule="evenodd" d="M3.274 3.4L4.086 17.048C4.09823 17.2514 4.18761 17.4425 4.3359 17.5822C4.4842 17.722 4.68023 17.7999 4.884 17.8H12.116C12.3198 17.7999 12.5158 17.722 12.6641 17.5822C12.8124 17.4425 12.9018 17.2514 12.914 17.048L13.726 3.4H3.274ZM14.929 3.4L14.112 17.119C14.0817 17.6278 13.8582 18.1059 13.4872 18.4555C13.1162 18.8051 12.6258 18.9999 12.116 19H4.884C4.37425 18.9999 3.88377 18.8051 3.51279 18.4555C3.14182 18.1059 2.91833 17.6278 2.888 17.119L2.071 3.4H0V2.7C0 2.56739 0.0526785 2.44021 0.146447 2.34645C0.240215 2.25268 0.367392 2.2 0.5 2.2H16.5C16.6326 2.2 16.7598 2.25268 16.8536 2.34645C16.9473 2.44021 17 2.56739 17 2.7V3.4H14.929ZM10.5 0C10.6326 0 10.7598 0.0526785 10.8536 0.146447C10.9473 0.240215 11 0.367392 11 0.5V1.2H6V0.5C6 0.367392 6.05268 0.240215 6.14645 0.146447C6.24021 0.0526785 6.36739 0 6.5 0H10.5ZM6 6H7.2L7.7 15H6.5L6 6ZM9.8 6H11L10.5 15H9.3L9.8 6Z" fill="white"/>
</svg>
