<svg width="39" height="36" viewBox="0 0 39 36" fill="none" xmlns="http://www.w3.org/2000/svg">
<path d="M23.1873 0C19.7703 0 16.9694 2.5262 16.9694 5.60932V7.79212C16.1677 7.96688 15.5744 8.61152 15.5744 9.39012V19.8308C15.5744 20.7441 16.3894 21.4792 17.4015 21.4792H28.9724C29.9846 21.4792 30.7996 20.7441 30.7996 19.8308V9.38978C30.7996 8.61118 30.2063 7.96688 29.4046 7.79212V5.60932C29.4049 2.52654 26.6043 0 23.1873 0ZM23.1873 2.54898C25.077 2.54898 26.5785 3.90456 26.5785 5.60932V7.74146H19.7962V5.61C19.7962 3.9049 21.2976 2.54898 23.1873 2.54898ZM23.1873 11.286C24.2488 11.286 25.1097 12.1009 25.1097 13.1067C25.1087 13.7503 24.7493 14.3453 24.1645 14.6724L24.8945 16.4132C25.1379 16.9935 24.8339 17.7188 24.3477 17.7188H22.0262C21.812 17.7184 21.6135 17.5692 21.4972 17.322C21.4328 17.1797 21.398 17.0258 21.3948 16.8697C21.3916 16.7135 21.4201 16.5583 21.4785 16.4135L22.2095 14.6727C21.6247 14.3453 21.2656 13.7499 21.265 13.1067C21.265 12.1009 22.1258 11.286 23.1873 11.286Z" fill="white"/>
<path fill-rule="evenodd" clip-rule="evenodd" d="M0.87924 1.7007C0.765238 1.69677 0.651611 1.71584 0.545131 1.75675C0.438651 1.79766 0.341495 1.85959 0.259451 1.93884C0.177408 2.01809 0.112155 2.11305 0.0675812 2.21805C0.0230072 2.32305 2.3743e-05 2.43595 0 2.55002L0 26.4486C2.71826e-05 26.6106 0.0463503 26.7692 0.133513 26.9058C0.220676 27.0424 0.345048 27.1512 0.49198 27.2194L11.2584 32.2208C11.3707 32.273 11.493 32.3 11.6168 32.3C11.7406 32.3 11.8629 32.273 11.9751 32.2208L22.3836 27.386L32.792 32.2208C33.3554 32.4826 34 32.0712 34 31.45V7.55142C34 7.38941 33.9537 7.23079 33.8665 7.09424C33.7793 6.95768 33.655 6.84888 33.508 6.78064L32.3 6.05032V30.1179L22.8895 25.7465L22.8725 22.7766H21.8525L21.8695 25.7496L12.1196 30.2794L11.9942 8.31336L15.4965 6.68646C15.4416 6.042 15.4796 5.39299 15.6094 4.75934L11.6164 6.61404L1.20802 1.77924C1.10479 1.73131 0.992986 1.7046 0.87924 1.7007ZM1.7 3.88214L10.9735 8.18994L11.0996 30.2729L1.7 25.9053V3.88214Z" fill="white"/>
<path d="M27.4281 29.521L30.8022 26.372C30.8022 26.3719 30.8022 26.3719 30.8023 26.3718C30.8024 26.3718 30.8025 26.3717 30.8026 26.3716C30.933 26.2498 31.0841 26.1566 31.2457 26.094C31.4075 26.0315 31.5787 26 31.7502 26C31.9216 26 32.0929 26.0315 32.2546 26.094C32.4161 26.1565 32.5671 26.2496 32.6974 26.3712L27.4281 29.521ZM27.4281 29.521C27.428 29.521 27.428 29.5211 27.428 29.5211C27.4279 29.5212 27.4278 29.5213 27.4277 29.5214C27.3263 29.6159 27.2388 29.7265 27.1698 29.85H26.743L27.0506 30.137C27.0173 30.2543 27 30.3764 27 30.5C27 30.6237 27.0173 30.7458 27.0506 30.863L26.743 31.1501H27.1698C27.2388 31.2736 27.3263 31.3842 27.4277 31.4787C27.4278 31.4788 27.4279 31.479 27.4281 31.4791L30.8026 34.6285C31.0649 34.8734 31.4069 35 31.7502 35C32.0935 35 32.4354 34.8734 32.6978 34.6285C32.9625 34.3815 33.1254 34.0311 33.1254 33.6498C33.1254 33.2686 32.9625 32.9182 32.6978 32.6712L32.6977 32.6711L31.8178 31.85M27.4281 29.521L31.8178 31.85M31.8178 31.85H36.625C36.9683 31.85 37.3102 31.7234 37.5725 31.4786C37.8371 31.2316 38 30.8812 38 30.5C38 30.1189 37.8371 29.7685 37.5725 29.5215C37.3102 29.2767 36.9683 29.1501 36.625 29.1501H31.8178L32.6974 28.3293C32.6975 28.3292 32.6976 28.3291 32.6977 28.329L31.8178 31.85Z" fill="white" stroke="#1B3D4F" stroke-width="2"/>
</svg>
