<svg width="618" height="723" viewBox="0 0 618 723" fill="none" xmlns="http://www.w3.org/2000/svg">
<g opacity="0.6">
<path d="M481.172 143.04C483.238 142.778 484.841 141.038 484.841 138.9C484.841 136.583 482.965 134.706 480.648 134.706C478.331 134.706 476.455 136.583 476.455 138.9C476.455 141.038 478.059 142.778 480.124 143.04V252.944L406.743 326.325V354.629L360.974 400.398C359.653 399.13 357.871 398.354 355.9 398.354C351.844 398.354 348.562 401.635 348.562 405.692C348.562 409.749 351.844 413.03 355.9 413.03C359.957 413.03 363.239 409.749 363.239 405.692C363.239 403.983 362.652 402.421 361.677 401.184L407.791 355.07V326.766L481.172 253.385V143.04Z" fill="#0071BC"/>
<path d="M454.965 330.739C459.022 330.739 462.303 327.457 462.303 323.401C462.303 319.344 459.022 316.062 454.965 316.062C450.908 316.062 447.627 319.344 447.627 323.401C447.627 324.973 448.119 326.42 448.958 327.615L428.233 348.34V470.687H429.281V348.78L449.629 328.432C450.971 329.848 452.858 330.739 454.965 330.739Z" fill="#0071BC"/>
<path d="M102.736 258.406C100.901 258.406 99.2241 259.087 97.9347 260.198L78.625 240.889V139.948H83.8665V128.417H72.3352V139.948H77.5767V241.329L97.1904 260.943C96.0792 262.232 95.3978 263.909 95.3978 265.744C95.3978 269.801 98.679 273.082 102.736 273.082C106.793 273.082 110.074 269.801 110.074 265.744C110.074 261.687 106.793 258.406 102.736 258.406ZM73.3835 129.465H82.8182V138.9H73.3835V129.465Z" fill="#0071BC"/>
<path d="M481.173 279.34C484.684 279.068 487.462 276.133 487.462 272.558C487.462 268.805 484.401 265.744 480.648 265.744C476.896 265.744 473.834 268.805 473.834 272.558C473.834 276.311 476.612 279.078 480.124 279.34V341.001L458.739 362.387C457.911 361.674 456.852 361.234 455.678 361.234C453.078 361.234 450.961 363.351 450.961 365.951C450.961 368.551 453.078 370.668 455.678 370.668C458.278 370.668 460.395 368.551 460.395 365.951C460.395 364.903 460.039 363.938 459.462 363.152L481.173 341.442V279.351V279.34ZM455.678 369.61C453.655 369.61 452.009 367.964 452.009 365.941C452.009 363.917 453.655 362.271 455.678 362.271C457.701 362.271 459.347 363.917 459.347 365.941C459.347 367.964 457.701 369.61 455.678 369.61ZM474.883 272.558C474.883 269.382 477.472 266.792 480.648 266.792C483.825 266.792 486.414 269.382 486.414 272.558C486.414 275.734 483.825 278.324 480.648 278.324C477.472 278.324 474.883 275.734 474.883 272.558Z" fill="#0071BC"/>
<path d="M161.441 269.633V343.842H162.489V269.193L124.153 230.857C125.18 229.661 125.798 228.12 125.798 226.433C125.798 222.68 122.737 219.619 118.985 219.619C115.232 219.619 112.171 222.68 112.171 226.433C112.171 230.186 115.232 233.247 118.985 233.247C120.672 233.247 122.224 232.628 123.408 231.601L161.441 269.633ZM113.219 226.433C113.219 223.256 115.808 220.667 118.985 220.667C122.161 220.667 124.75 223.256 124.75 226.433C124.75 229.609 122.161 232.198 118.985 232.198C115.808 232.198 113.219 229.609 113.219 226.433Z" fill="#0071BC"/>
<path d="M279.899 404.12H289.333V394.685H279.899V404.12ZM280.947 395.733H288.285V403.071H280.947V395.733Z" fill="#0071BC"/>
<path d="M279.899 417.748H289.333V408.313H279.899V417.748ZM280.947 409.361H288.285V416.699H280.947V409.361Z" fill="#0071BC"/>
<path d="M279.899 431.375H289.333V421.941H279.899V431.375ZM280.947 422.989H288.285V430.327H280.947V422.989Z" fill="#0071BC"/>
<path d="M279.899 445.003H289.333V435.569H279.899V445.003ZM280.947 436.617H288.285V443.955H280.947V436.617Z" fill="#0071BC"/>
<path d="M55.5624 527.819H46.1277V537.254H55.5624V527.819ZM54.5141 536.206H47.176V528.867H54.5141V536.206Z" fill="#0071BC"/>
<path d="M55.5624 541.447H46.1277V550.882H55.5624V541.447ZM54.5141 549.833H47.176V542.495H54.5141V549.833Z" fill="#0071BC"/>
<path d="M55.5624 555.075H46.1277V564.51H55.5624V555.075ZM54.5141 563.461H47.176V556.123H54.5141V563.461Z" fill="#0071BC"/>
<path d="M46.1277 578.138H55.5624V568.703H46.1277V578.138ZM47.176 569.751H54.5141V577.089H47.176V569.751Z" fill="#0071BC"/>
<path d="M451.82 118.982H443.434V127.368H451.82V118.982Z" fill="#0071BC"/>
<path d="M451.82 132.61H443.434V140.996H451.82V132.61Z" fill="#0071BC"/>
<path d="M451.82 146.238H443.434V154.624H451.82V146.238Z" fill="#0071BC"/>
<path d="M451.82 159.866H443.434V168.252H451.82V159.866Z" fill="#0071BC"/>
<path d="M491.655 665.146H483.269V673.533H491.655V665.146Z" fill="#0071BC"/>
<path d="M491.655 678.774H483.269V687.161H491.655V678.774Z" fill="#0071BC"/>
<path d="M491.655 692.402H483.269V700.789H491.655V692.402Z" fill="#0071BC"/>
<path d="M491.655 706.03H483.269V714.417H491.655V706.03Z" fill="#0071BC"/>
<path d="M297.196 330.739C293.443 330.739 290.382 333.8 290.382 337.553C290.382 339.66 291.336 341.536 292.845 342.794L216.078 433.137L215.952 433.283V545.431L150.958 610.425V678.785C148.641 678.785 146.765 680.661 146.765 682.978C146.765 685.295 148.641 687.171 150.958 687.171C153.274 687.171 155.151 685.295 155.151 682.978C155.151 681.028 153.809 679.403 152.006 678.932V610.865L217.001 545.871V433.682L293.705 343.413C294.732 344.031 295.917 344.387 297.196 344.387C300.949 344.387 304.01 341.326 304.01 337.574C304.01 333.821 300.949 330.76 297.196 330.76V330.739ZM297.196 343.318C294.019 343.318 291.43 340.729 291.43 337.553C291.43 334.376 294.019 331.787 297.196 331.787C300.372 331.787 302.961 334.376 302.961 337.553C302.961 340.729 300.372 343.318 297.196 343.318Z" fill="#0071BC"/>
<path d="M355.376 13.5963V47.2991L379.016 70.9383V309.951H374.592L379.54 316.744L384.488 309.951H380.064V70.498L356.425 46.8588V13.5963C359.936 13.3237 362.714 10.3885 362.714 6.81377C362.714 3.06085 359.653 -0.00018692 355.901 -0.00018692C352.148 -0.00018692 349.087 3.06085 349.087 6.81377C349.087 10.5667 351.865 13.3342 355.376 13.5963ZM355.901 1.04811C359.077 1.04811 361.666 3.63742 361.666 6.81377C361.666 9.99012 359.077 12.5794 355.901 12.5794C352.724 12.5794 350.135 9.99012 350.135 6.81377C350.135 3.63742 352.724 1.04811 355.901 1.04811Z" fill="#0071BC"/>
<path d="M60.2797 262.599C56.5268 262.599 53.4658 265.66 53.4658 269.413C53.4658 270.839 53.9061 272.16 54.6504 273.25L26.7341 301.166V610.845L56.6107 640.721V673.522H52.407L57.355 680.315L62.303 673.522H57.659V640.281L27.7824 610.404V301.606L55.3213 274.068C56.5688 275.388 58.3299 276.227 60.2797 276.227C64.0327 276.227 67.0937 273.166 67.0937 269.413C67.0937 265.66 64.0327 262.599 60.2797 262.599ZM60.2797 275.179C57.1034 275.179 54.5141 272.589 54.5141 269.413C54.5141 266.237 57.1034 263.647 60.2797 263.647C63.4561 263.647 66.0454 266.237 66.0454 269.413C66.0454 272.589 63.4561 275.179 60.2797 275.179Z" fill="#0071BC"/>
<path d="M183.455 619.021C185.771 619.021 187.648 617.144 187.648 614.828C187.648 612.512 185.771 610.635 183.455 610.635C181.139 610.635 179.262 612.512 179.262 614.828C179.262 617.144 181.139 619.021 183.455 619.021Z" fill="#0071BC"/>
<path d="M183.455 632.649C185.771 632.649 187.648 630.772 187.648 628.456C187.648 626.14 185.771 624.263 183.455 624.263C181.139 624.263 179.262 626.14 179.262 628.456C179.262 630.772 181.139 632.649 183.455 632.649Z" fill="#0071BC"/>
<path d="M183.455 646.277C185.771 646.277 187.648 644.4 187.648 642.084C187.648 639.768 185.771 637.891 183.455 637.891C181.139 637.891 179.262 639.768 179.262 642.084C179.262 644.4 181.139 646.277 183.455 646.277Z" fill="#0071BC"/>
<path d="M183.455 659.905C185.771 659.905 187.648 658.028 187.648 655.712C187.648 653.396 185.771 651.519 183.455 651.519C181.139 651.519 179.262 653.396 179.262 655.712C179.262 658.028 181.139 659.905 183.455 659.905Z" fill="#0071BC"/>
<path d="M144.668 123.395L181.358 86.7047V56C184.912 55.4864 187.648 52.4358 187.648 48.7458C187.648 44.6889 184.367 41.4077 180.31 41.4077C176.253 41.4077 172.972 44.6889 172.972 48.7458C172.972 52.8027 176.253 56.0839 180.31 56.0839V86.2645L143.62 122.955V202.846H144.668V123.395Z" fill="#0071BC"/>
<path d="M361.142 706.083V626.139L307.679 572.676V533.008C309.744 532.746 311.348 531.006 311.348 528.867C311.348 526.551 309.471 524.674 307.155 524.674C304.838 524.674 302.961 526.551 302.961 528.867C302.961 531.006 304.565 532.746 306.63 533.008V573.116L360.094 626.58V706.083C358.029 706.345 356.425 708.085 356.425 710.223C356.425 712.54 358.301 714.417 360.618 714.417C362.935 714.417 364.811 712.54 364.811 710.223C364.811 708.085 363.207 706.345 361.142 706.083Z" fill="#0071BC"/>
<path d="M242.38 559.74L257.884 563.43V556.909L242.38 553.219V559.74Z" fill="#0071BC"/>
<path d="M242.38 569.95L257.884 573.64V567.12L242.38 563.43V569.95Z" fill="#0071BC"/>
<path d="M242.38 580.161L257.884 583.851V577.33L242.38 573.64V580.161Z" fill="#0071BC"/>
<path d="M242.38 590.382L257.884 594.061V587.541L242.38 583.851V590.382Z" fill="#0071BC"/>
<path d="M87.2315 637.314L102.736 641.004V634.484L87.2315 630.794V637.314Z" fill="#0071BC"/>
<path d="M87.2315 647.525L102.736 651.215V644.694L87.2315 641.004V647.525Z" fill="#0071BC"/>
<path d="M87.2315 657.735L102.736 661.425V654.905L87.2315 651.215V657.735Z" fill="#0071BC"/>
<path d="M87.2315 667.956L102.736 671.635V665.115L87.2315 661.425V667.956Z" fill="#0071BC"/>
<path d="M507.548 668.124V678.659H535.684V659.947H515.725L507.548 668.134V668.124ZM534.793 660.838V677.768H508.449V668.501L516.102 660.838H534.793Z" fill="#0071BC"/>
<path d="M515.053 666.153H514.162V669.025H515.053V666.153Z" fill="#0071BC"/>
<path d="M516.94 666.153H516.049V669.025H516.94V666.153Z" fill="#0071BC"/>
<path d="M520.714 666.153H519.823V669.025H520.714V666.153Z" fill="#0071BC"/>
<path d="M522.601 666.153H521.71V669.025H522.601V666.153Z" fill="#0071BC"/>
<path d="M528.273 666.153H527.382V669.025H528.273V666.153Z" fill="#0071BC"/>
<path d="M530.159 666.153H529.268V669.025H530.159V666.153Z" fill="#0071BC"/>
<path d="M532.046 666.153H531.155V669.025H532.046V666.153Z" fill="#0071BC"/>
<path d="M515.053 671.782H514.162V674.655H515.053V671.782Z" fill="#0071BC"/>
<path d="M520.714 671.782H519.823V674.655H520.714V671.782Z" fill="#0071BC"/>
<path d="M522.601 671.782H521.71V674.655H522.601V671.782Z" fill="#0071BC"/>
<path d="M526.386 671.782H525.495V674.655H526.386V671.782Z" fill="#0071BC"/>
<path d="M528.273 671.782H527.382V674.655H528.273V671.782Z" fill="#0071BC"/>
<path d="M532.046 671.782H531.155V674.655H532.046V671.782Z" fill="#0071BC"/>
<path d="M341.749 313.997H321.789L313.612 322.185V332.72H341.749V314.008V313.997ZM340.858 331.818H314.514V322.551L322.166 314.888H340.858V331.818Z" fill="#0071BC"/>
<path d="M321.118 320.214H320.227V323.086H321.118V320.214Z" fill="#0071BC"/>
<path d="M323.005 320.214H322.114V323.086H323.005V320.214Z" fill="#0071BC"/>
<path d="M326.779 320.214H325.888V323.086H326.779V320.214Z" fill="#0071BC"/>
<path d="M328.666 320.214H327.774V323.086H328.666V320.214Z" fill="#0071BC"/>
<path d="M334.337 320.214H333.446V323.086H334.337V320.214Z" fill="#0071BC"/>
<path d="M336.224 320.214H335.333V323.086H336.224V320.214Z" fill="#0071BC"/>
<path d="M338.111 320.214H337.22V323.086H338.111V320.214Z" fill="#0071BC"/>
<path d="M321.118 325.833H320.227V328.705H321.118V325.833Z" fill="#0071BC"/>
<path d="M326.779 325.833H325.888V328.705H326.779V325.833Z" fill="#0071BC"/>
<path d="M328.666 325.833H327.774V328.705H328.666V325.833Z" fill="#0071BC"/>
<path d="M332.45 325.833H331.559V328.705H332.45V325.833Z" fill="#0071BC"/>
<path d="M334.337 325.833H333.446V328.705H334.337V325.833Z" fill="#0071BC"/>
<path d="M338.111 325.833H337.22V328.705H338.111V325.833Z" fill="#0071BC"/>
<path d="M528.346 410.63V561.365H529.394V410.189L495.178 375.973C495.597 375.323 495.849 374.547 495.849 373.719C495.849 371.402 493.972 369.526 491.655 369.526C489.339 369.526 487.462 371.402 487.462 373.719C487.462 376.036 489.339 377.912 491.655 377.912C492.756 377.912 493.752 377.482 494.507 376.78L528.346 410.619V410.63Z" fill="#0071BC"/>
<path d="M310.771 647.65L315.719 640.857H305.823L310.771 647.65Z" fill="#0071BC"/>
<path d="M310.771 655.397L315.719 648.594H305.823L310.771 655.397Z" fill="#0071BC"/>
<path d="M310.771 663.134L315.719 656.341H305.823L310.771 663.134Z" fill="#0071BC"/>
<path d="M310.771 670.881L315.719 664.077H305.823L310.771 670.881Z" fill="#0071BC"/>
<path d="M310.771 678.617L315.719 671.824H305.823L310.771 678.617Z" fill="#0071BC"/>
<path d="M572.092 667.589V358.152L508.072 294.132V184.511C510.42 184.249 512.265 182.268 512.265 179.846C512.265 177.247 510.148 175.129 507.548 175.129C504.948 175.129 502.83 177.247 502.83 179.846C502.83 182.268 504.675 184.249 507.024 184.511V294.562L571.043 358.582V667.589H566.62L571.568 674.382L576.515 667.589H572.092ZM503.879 179.836C503.879 177.813 505.525 176.167 507.548 176.167C509.571 176.167 511.217 177.813 511.217 179.836C511.217 181.859 509.571 183.505 507.548 183.505C505.525 183.505 503.879 181.859 503.879 179.836Z" fill="#0071BC"/>
</g>
<circle cx="449" cy="371" r="352" fill="#1B3D4F"/>
<path d="M287.234 322.971C283.964 322.971 280.745 322.111 277.915 320.476L165.516 255.586C159.771 252.263 156.197 246.078 156.197 239.442V109.652C156.197 103.016 159.771 96.8314 165.516 93.5083L277.915 28.6185C280.745 26.9831 283.964 26.1235 287.234 26.1235C290.505 26.1235 293.723 26.9831 296.554 28.6185L408.952 93.5083C414.697 96.8314 418.272 103.016 418.272 109.652V239.432C418.272 246.067 414.697 252.252 408.952 255.576L296.554 320.465C293.723 322.101 290.505 322.96 287.234 322.96V322.971Z" fill="#0E2E3F"/>
<path d="M160.914 239.432V109.652C160.914 104.671 163.571 100.074 167.875 97.5893C167.875 97.5893 167.875 97.5893 167.875 97.5893L280.274 32.6995L280.012 32.2458L280.274 32.6994C284.577 30.2143 289.891 30.2143 294.195 32.6994L294.428 32.2952L294.195 32.6995L406.593 97.5888C410.898 100.085 413.555 104.682 413.555 109.652V239.432C413.555 244.413 410.897 249.009 406.594 251.494L294.195 316.384L294.429 316.789L294.195 316.384C289.891 318.869 284.577 318.869 280.274 316.384L280.055 316.763L280.274 316.384L167.876 251.495C163.571 248.999 160.914 244.402 160.914 239.432Z" fill="#0E2E3F" stroke="#345360" stroke-width="1.0483"/>
<path opacity="0.5" d="M319.847 148.418V149.466H320.895H326.745C331.177 149.466 334.775 153.065 334.775 157.496V189.784C334.775 211.618 317.077 229.326 295.233 229.326H279.142C257.308 229.326 239.6 211.628 239.6 189.784V157.496C239.6 153.065 243.198 149.466 247.63 149.466H251.959H253.007V148.418V131.184C253.007 112.757 268 97.7643 286.427 97.7643C304.854 97.7643 319.847 112.757 319.847 131.184V148.418ZM265.472 131.184V132.232H265.482V148.418V149.466H266.53H306.355H307.404V148.418V131.184C307.404 119.619 298.003 110.218 286.438 110.218C274.872 110.218 265.472 119.619 265.472 131.184Z" fill="#327C85" stroke="#57CACC" stroke-width="2.0966"/>
<path d="M292.547 182.779L292.126 182.977L292.272 183.418L296.562 196.362C297.884 202.137 293.504 207.637 287.58 207.637C281.657 207.637 277.277 202.127 278.599 196.362L282.889 183.418L283.035 182.977L282.614 182.779C278.618 180.901 275.85 176.856 275.85 172.162C275.85 165.68 281.098 160.432 287.58 160.432C294.063 160.432 299.311 165.68 299.311 172.162C299.311 176.866 296.543 180.901 292.547 182.779Z" fill="#0E2E3F" stroke="#57CACC" stroke-width="1.0483"/>
<path d="M131.038 589.239C127.767 589.239 124.549 588.38 121.718 586.744L9.31941 521.854C3.57472 518.531 0 512.346 0 505.711V375.931C0 369.295 3.57472 363.11 9.31941 359.787L121.718 294.897C124.549 293.262 127.767 292.402 131.038 292.402C134.308 292.402 137.527 293.262 140.357 294.897L252.756 359.787C258.5 363.11 262.075 369.295 262.075 375.931V505.711C262.075 512.346 258.5 518.531 252.756 521.854L140.357 586.744C137.527 588.38 134.308 589.239 131.038 589.239Z" fill="black" fill-opacity="0.2"/>
<path d="M138.232 298.564L137.998 298.968C133.695 296.483 128.38 296.483 124.077 298.968L123.815 298.514L124.077 298.968L11.6781 363.858C11.6781 363.858 11.6781 363.858 11.678 363.858C7.37445 366.343 4.71733 370.94 4.71733 375.921V505.7C4.71733 510.67 7.37421 515.267 11.6789 517.763L124.077 582.653L123.858 583.031L124.077 582.653C128.38 585.138 133.695 585.138 137.998 582.653L138.232 583.058L137.998 582.653L250.397 517.763C254.701 515.278 257.358 510.681 257.358 505.7V375.921C257.358 370.951 254.701 366.354 250.397 363.858L138.232 298.564ZM138.232 298.564L137.998 298.968L250.396 363.857L138.232 298.564Z" fill="#0E2E3F" stroke="#345360" stroke-width="1.0483"/>
<path d="M95.668 476.83C95.1124 476.83 94.5673 476.526 94.2842 476.002C93.8754 475.237 94.1584 474.283 94.9237 473.874C99.5886 471.358 103.918 468.234 107.776 464.575C108.405 463.978 109.401 464.009 109.998 464.638C110.596 465.267 110.564 466.263 109.935 466.861C105.878 470.708 101.329 474 96.4123 476.641C96.1712 476.767 95.9196 476.83 95.668 476.83Z" fill="#57CACC"/>
<path d="M119.077 454.648C118.794 454.648 118.511 454.575 118.259 454.417C117.515 453.967 117.284 453.002 117.735 452.258C120.534 447.666 122.704 442.718 124.172 437.561C125.692 432.235 126.457 426.7 126.457 421.102H126.593C126.719 420.369 126.929 419.656 127.222 418.964C127.704 417.811 128.407 416.783 129.287 415.892C130.178 415.001 131.206 414.309 132.359 413.827C133.554 413.324 134.812 413.072 136.122 413.072C136.992 413.072 137.695 413.775 137.695 414.645C137.695 415.515 136.992 416.217 136.122 416.217C135.252 416.217 134.392 416.385 133.585 416.731C132.81 417.056 132.107 417.528 131.51 418.125C130.912 418.723 130.44 419.425 130.115 420.201C129.78 421.008 129.602 421.857 129.602 422.738H129.581C129.445 428.074 128.648 433.347 127.191 438.441C125.639 443.871 123.364 449.082 120.408 453.914C120.115 454.396 119.591 454.669 119.066 454.669L119.077 454.648Z" fill="#57CACC"/>
<path d="M109.17 484.902C108.636 484.902 108.122 484.629 107.828 484.147C107.378 483.403 107.619 482.438 108.353 481.988C113.374 478.937 118.018 475.268 122.148 471.064C126.289 466.871 129.895 462.164 132.872 457.09C135.902 451.943 138.261 446.419 139.896 440.695C141.584 434.793 142.496 428.661 142.611 422.476V422.318C142.569 421.574 142.401 420.861 142.118 420.18C141.783 419.383 142.15 418.461 142.957 418.115C143.754 417.779 144.676 418.146 145.022 418.953C145.316 419.645 145.525 420.358 145.651 421.092H145.787L145.766 422.706C145.63 429.09 144.676 435.433 142.936 441.544C141.227 447.53 138.753 453.296 135.598 458.673C132.485 463.967 128.721 468.873 124.402 473.255C120.083 477.637 115.24 481.474 109.998 484.661C109.747 484.818 109.464 484.891 109.181 484.891L109.17 484.902Z" fill="#57CACC"/>
<path d="M86.789 468.622C86.139 468.622 85.531 468.213 85.3003 467.563C85.0173 466.745 85.4471 465.844 86.2648 465.561C90.6467 464.041 94.7665 461.85 98.509 459.051C102.209 456.283 105.449 452.992 108.164 449.249C110.9 445.465 113.028 441.314 114.485 436.9C115.995 432.34 116.749 427.57 116.749 422.727C116.749 420.117 117.263 417.58 118.269 415.19C119.244 412.884 120.639 410.819 122.421 409.036C123.039 408.418 124.035 408.418 124.643 409.036C125.262 409.644 125.262 410.651 124.643 411.259C123.155 412.747 121.98 414.488 121.163 416.416C120.314 418.419 119.884 420.536 119.884 422.727C119.884 427.906 119.066 433.011 117.452 437.886C115.89 442.603 113.615 447.048 110.69 451.094C107.797 455.088 104.327 458.611 100.375 461.567C96.3809 464.554 91.9675 466.892 87.2816 468.527C87.1139 468.59 86.9357 468.611 86.768 468.611L86.789 468.622Z" fill="#57CACC"/>
<path d="M144.687 460.623C144.446 460.623 144.194 460.571 143.964 460.445C143.188 460.047 142.894 459.093 143.293 458.328C146.154 452.824 148.366 446.985 149.886 440.978C151.438 434.814 152.266 428.43 152.329 422.014V421.962V421.794C152.214 419.761 151.71 417.758 150.84 415.882C149.981 414.047 148.796 412.401 147.318 410.997C145.84 409.592 144.131 408.481 142.255 407.716C140.305 406.919 138.25 406.521 136.133 406.521C135.263 406.521 134.56 405.818 134.56 404.948C134.56 404.078 135.263 403.376 136.133 403.376C138.659 403.376 141.123 403.858 143.45 404.812C145.693 405.734 147.727 407.045 149.488 408.732C151.249 410.41 152.664 412.37 153.681 414.561C154.656 416.637 155.243 418.838 155.432 421.123H155.495L155.463 422.738C155.348 429.195 154.499 435.579 152.937 441.754C151.365 448.002 149.058 454.061 146.092 459.795C145.809 460.33 145.263 460.644 144.697 460.644L144.687 460.623Z" fill="#57CACC"/>
<path d="M120.743 488.823C120.261 488.823 119.79 488.603 119.486 488.194C118.961 487.502 119.108 486.516 119.8 485.992C124.675 482.344 129.14 478.151 133.092 473.517C133.659 472.857 134.644 472.773 135.304 473.339C135.965 473.905 136.049 474.891 135.483 475.551C131.384 480.363 126.74 484.724 121.676 488.508C121.393 488.718 121.068 488.823 120.733 488.823H120.743Z" fill="#57CACC"/>
<path d="M80.4572 460.372C79.7548 460.372 79.1153 459.889 78.9371 459.177C78.7275 458.338 79.2412 457.478 80.0798 457.269C83.8956 456.315 87.5018 454.742 90.8249 452.583C94.0851 450.465 96.9575 447.844 99.3686 444.794C99.9032 444.112 100.899 443.997 101.58 444.532C102.262 445.066 102.377 446.062 101.843 446.744C99.2113 450.067 96.0874 452.918 92.5441 455.224C88.938 457.573 85.0068 459.292 80.845 460.319C80.7192 460.351 80.5935 460.372 80.4677 460.372H80.4572Z" fill="#57CACC"/>
<path d="M106.497 436.701C106.319 436.701 106.141 436.67 105.973 436.607C105.155 436.313 104.726 435.422 105.019 434.594C106.371 430.789 107.053 426.784 107.053 422.717C107.053 418.649 107.818 415.001 109.338 411.416C110.806 407.957 112.902 404.843 115.576 402.181C118.249 399.507 121.362 397.411 124.811 395.943C128.396 394.423 132.202 393.658 136.112 393.658C140.022 393.658 143.722 394.402 147.266 395.88C150.683 397.306 153.765 399.35 156.428 401.95C159.08 404.55 161.198 407.579 162.697 410.965C163.053 411.762 162.697 412.685 161.9 413.041C161.103 413.397 160.181 413.041 159.824 412.244C158.483 409.225 156.606 406.52 154.226 404.204C151.847 401.877 149.1 400.052 146.06 398.784C142.905 397.463 139.561 396.803 136.122 396.803C132.684 396.803 129.235 397.495 126.048 398.847C122.966 400.157 120.188 402.023 117.808 404.413C115.429 406.793 113.552 409.571 112.242 412.653C110.89 415.85 110.198 419.236 110.198 422.727C110.198 427.162 109.453 431.512 107.975 435.663C107.745 436.303 107.137 436.712 106.497 436.712V436.701Z" fill="#57CACC"/>
<path d="M133.774 490.584C133.344 490.584 132.925 490.416 132.621 490.07C132.034 489.431 132.076 488.435 132.715 487.848C137.17 483.759 141.227 479.21 144.771 474.325C148.345 469.398 151.438 464.104 153.954 458.59C156.512 452.971 158.493 447.069 159.845 441.041C160.034 440.192 160.873 439.668 161.722 439.846C162.571 440.035 163.105 440.873 162.906 441.722C161.512 447.96 159.457 454.061 156.805 459.879C154.205 465.592 151.008 471.064 147.308 476.159C143.638 481.212 139.435 485.919 134.833 490.143C134.529 490.416 134.151 490.563 133.774 490.563V490.584Z" fill="#57CACC"/>
<path d="M75.6035 451.472C74.8382 451.472 74.1674 450.916 74.052 450.14C73.9158 449.281 74.5133 448.484 75.3624 448.348C78.413 447.876 81.3377 446.87 84.0319 445.36C86.6736 443.882 89.0218 441.964 91.003 439.678C93.0053 437.372 94.5673 434.762 95.647 431.921C96.7687 428.986 97.3348 425.893 97.3348 422.727C97.3348 417.507 98.3621 412.433 100.385 407.653C102.346 403.04 105.145 398.889 108.698 395.325C112.263 391.76 116.403 388.961 121.026 387.012C125.807 384.988 130.88 383.961 136.101 383.961C141.321 383.961 146.311 384.967 151.05 386.959C151.846 387.295 152.224 388.217 151.888 389.014C151.553 389.811 150.63 390.188 149.834 389.853C145.483 388.028 140.86 387.106 136.101 387.106C131.342 387.106 126.635 388.049 122.253 389.905C118.007 391.708 114.202 394.276 110.921 397.547C107.65 400.818 105.071 404.634 103.279 408.879C101.423 413.272 100.48 417.926 100.48 422.727C100.48 426.281 99.8402 429.751 98.5927 433.042C97.3767 436.219 95.6261 439.144 93.3932 441.733C91.1708 444.301 88.5396 446.44 85.5833 448.107C82.5538 449.805 79.2831 450.927 75.8447 451.461C75.7608 451.472 75.6874 451.482 75.6035 451.482V451.472Z" fill="#57CACC"/>
<path d="M166.491 459.428C166.303 459.428 166.114 459.397 165.925 459.323C165.118 459.009 164.709 458.097 165.024 457.29C167.152 451.797 168.798 446.073 169.909 440.276C171.052 434.353 171.67 428.262 171.733 422.182C171.66 417.402 170.664 412.81 168.777 408.491C166.953 404.319 164.374 400.566 161.103 397.348C160.485 396.74 160.474 395.744 161.082 395.125C161.69 394.507 162.686 394.496 163.305 395.104C166.858 398.606 169.668 402.684 171.649 407.233C173.567 411.636 174.637 416.291 174.836 421.102H174.878L174.857 422.717C174.762 428.828 174.134 434.929 172.991 440.873C171.838 446.849 170.139 452.751 167.949 458.422C167.707 459.04 167.11 459.428 166.481 459.428H166.491Z" fill="#57CACC"/>
<path d="M148.377 489.483C148.01 489.483 147.643 489.357 147.349 489.095C146.689 488.529 146.626 487.533 147.192 486.873C150.966 482.522 154.384 477.826 157.35 472.909C157.801 472.165 158.765 471.924 159.51 472.375C160.254 472.825 160.495 473.79 160.044 474.534C156.983 479.608 153.45 484.451 149.561 488.927C149.247 489.284 148.817 489.472 148.377 489.472V489.483Z" fill="#57CACC"/>
<path d="M72.2281 442.079C71.3895 442.079 70.6976 441.418 70.6557 440.58C70.6137 439.71 71.2846 438.976 72.1547 438.934C74.2618 438.84 76.2955 438.347 78.2034 437.466C80.0485 436.607 81.7048 435.433 83.12 433.954C83.7175 433.325 84.7134 433.305 85.3424 433.902C85.9714 434.5 85.9923 435.495 85.3948 436.124C83.707 437.886 81.7362 439.301 79.5243 440.318C77.2494 441.366 74.8174 441.963 72.291 442.079C72.2701 442.079 72.2386 442.079 72.2176 442.079H72.2281Z" fill="#57CACC"/>
<path d="M89.2105 424.3C88.3404 424.3 87.638 423.597 87.638 422.727C87.638 416.196 88.9274 409.854 91.4538 403.868C93.8963 398.103 97.3977 392.914 101.853 388.458C106.308 384.003 111.497 380.502 117.263 378.059C123.238 375.522 129.581 374.243 136.122 374.243C142.663 374.243 148.911 375.512 154.845 378.007C160.579 380.418 165.747 383.867 170.192 388.27C174.636 392.662 178.138 397.788 180.622 403.491C180.968 404.288 180.601 405.21 179.805 405.556C179.008 405.902 178.085 405.535 177.739 404.738C175.423 399.402 172.141 394.612 167.99 390.502C163.828 386.393 159.006 383.154 153.639 380.9C148.083 378.562 142.192 377.378 136.132 377.378C130.073 377.378 124.098 378.583 118.5 380.942C113.101 383.227 108.258 386.498 104.086 390.67C99.9136 394.842 96.6429 399.686 94.3576 405.084C91.9884 410.672 90.7933 416.605 90.7933 422.717C90.7933 423.587 90.091 424.289 89.2209 424.289L89.2105 424.3Z" fill="#57CACC"/>
<path d="M164.521 484.241C164.227 484.241 163.923 484.158 163.65 483.979C162.927 483.497 162.728 482.522 163.21 481.799C166.051 477.511 168.609 472.993 170.81 468.37C173.043 463.684 174.951 458.799 176.492 453.851C178.054 448.819 179.27 443.63 180.088 438.42C180.926 433.105 181.377 427.654 181.43 422.224L181.451 421.102H181.891C182.478 420.494 183.589 420.515 184.155 421.102H184.596L184.575 422.717C184.501 428.157 184.04 433.598 183.201 438.902C182.352 444.259 181.115 449.606 179.501 454.784C177.918 459.879 175.947 464.9 173.651 469.722C171.387 474.482 168.756 479.126 165.831 483.539C165.527 484 165.024 484.241 164.521 484.241Z" fill="#57CACC"/>
<path d="M454.962 691.973C451.692 691.973 448.473 691.113 445.643 689.478L333.244 624.588C327.5 621.265 323.925 615.08 323.925 608.444V478.664C323.925 472.029 327.5 465.844 333.244 462.52L445.643 397.631C448.473 395.995 451.692 395.136 454.962 395.136C458.233 395.136 461.451 395.995 464.282 397.631L576.681 462.52C582.425 465.844 586 472.029 586 478.664V608.444C586 615.08 582.425 621.265 576.681 624.588L464.282 689.478C461.451 691.113 458.233 691.973 454.962 691.973Z" fill="black" fill-opacity="0.2"/>
<path d="M462.157 685.791L461.923 685.386L574.322 620.496C578.626 618.011 581.283 613.414 581.283 608.434V478.654C581.283 473.684 578.626 469.087 574.322 466.591L462.157 685.791ZM462.157 685.791L461.923 685.386C457.62 687.871 452.305 687.871 448.002 685.386L447.783 685.765L448.002 685.386L335.604 620.497L462.157 685.791ZM461.923 401.701L574.321 466.591L335.603 620.496C331.299 618 328.642 613.403 328.642 608.434V478.654C328.642 473.673 331.299 469.076 335.603 466.591C335.603 466.591 335.603 466.591 335.603 466.591L448.002 401.701L447.74 401.248L448.002 401.701C452.305 399.216 457.62 399.216 461.923 401.701L462.157 401.297L461.923 401.701Z" fill="#0E2E3F" stroke="#345360" stroke-width="1.0483"/>
<g opacity="0.5">
<path d="M504.724 515.386L504.671 515.959C504.05 522.579 502.556 532.797 498.987 543.882L498.987 543.883C491.184 568.101 477.218 586.161 457.457 597.503L504.724 515.386ZM504.724 515.386H504.683L504.87 513.434L504.911 513.003L504.495 512.881L502.063 512.168L502.063 512.168C483.248 506.661 467.681 495.86 457.94 487.77C457.939 487.769 457.939 487.769 457.939 487.769L455.98 486.135L455.644 485.854L455.308 486.135L453.349 487.769C453.349 487.769 453.348 487.769 453.348 487.77C443.606 495.86 428.051 506.661 409.225 512.168L409.224 512.168L406.792 512.881L406.377 513.003L406.418 513.434L406.659 515.96C407.29 522.589 408.774 532.808 412.343 543.883C420.146 568.102 434.112 586.161 453.873 597.503L455.403 598.384L455.665 598.534L455.926 598.384L457.456 597.503L504.724 515.386ZM399.417 507.336C399.419 507.196 399.421 507.074 399.423 506.969C415.437 504.467 429.542 496.679 439.656 489.507C444.763 485.886 448.86 482.417 451.681 479.851C453.092 478.569 454.184 477.512 454.925 476.774C455.239 476.461 455.49 476.206 455.675 476.015C455.86 476.206 456.111 476.461 456.426 476.774C457.166 477.512 458.259 478.569 459.67 479.851C462.491 482.417 466.588 485.886 471.694 489.507C481.808 496.679 495.914 504.467 511.928 506.969C511.93 507.073 511.932 507.196 511.933 507.336C511.939 507.864 511.94 508.643 511.92 509.646C511.88 511.652 511.756 514.553 511.423 518.124C510.755 525.267 509.247 535.085 505.887 545.783C499.183 567.126 485.119 591.935 455.675 606.049C426.231 591.941 412.168 567.131 405.464 545.787C402.103 535.088 400.595 525.269 399.928 518.125C399.594 514.554 399.471 511.653 399.431 509.646C399.411 508.643 399.412 507.864 399.417 507.336Z" fill="#57CACC" stroke="#57CACC" stroke-width="1.0483"/>
<path d="M413.576 517.818C414.288 524.035 415.735 532.631 418.702 541.835C425.778 563.807 438.211 580.276 455.665 590.812C473.129 580.276 485.552 563.807 492.628 541.835C495.595 532.631 497.041 524.035 497.754 517.818C480.153 512.189 465.498 502.408 455.654 494.504C445.811 502.408 431.166 512.189 413.555 517.818H413.576Z" fill="#57CACC"/>
</g>
<path d="M463.255 534.895V535.419H463.258C463.041 538.599 460.861 541.239 457.922 542.141L457.421 542.295L457.575 542.797L459.715 549.739C460.18 552.258 458.251 554.582 455.686 554.582C453.119 554.582 451.183 552.256 451.656 549.74L453.797 542.797L453.951 542.295L453.45 542.141C450.351 541.19 448.096 538.306 448.096 534.895C448.096 530.709 451.489 527.316 455.675 527.316C459.862 527.316 463.255 530.709 463.255 534.895Z" fill="#0E2E3F" stroke="#57CACC" stroke-width="1.0483"/>
</svg>
