<svg width="586" height="666" viewBox="0 0 586 666" fill="none" xmlns="http://www.w3.org/2000/svg">
<path d="M287.235 296.971C283.964 296.971 280.746 296.111 277.915 294.476L165.517 229.586C159.772 226.263 156.197 220.078 156.197 213.442V83.6521C156.197 77.0164 159.772 70.8314 165.517 67.5083L277.915 2.61849C280.746 0.983143 283.964 0.123535 287.235 0.123535C290.506 0.123535 293.724 0.983143 296.554 2.61849L408.953 67.5083C414.698 70.8314 418.272 77.0164 418.272 83.6521V213.432C418.272 220.067 414.698 226.252 408.953 229.576L296.554 294.465C293.724 296.101 290.506 296.96 287.235 296.96V296.971Z" fill="#0E2E3F"/>
<path d="M280.274 6.69954L280.274 6.69957L167.876 71.5893C167.876 71.5893 167.876 71.5894 167.875 71.5894C163.572 74.0746 160.915 78.6713 160.915 83.6521V213.432C160.915 218.402 163.572 222.999 167.876 225.495L280.274 290.384C284.578 292.869 289.892 292.869 294.196 290.384L294.458 290.838L294.196 290.384L406.594 225.495C410.898 223.009 413.555 218.413 413.555 213.432V83.6521C413.555 78.6825 410.899 74.0854 406.594 71.5894L280.274 6.69954ZM280.274 6.69954C284.578 4.21438 289.892 4.21438 294.196 6.69954L294.458 6.24589L294.196 6.69957L406.594 71.5889L280.274 6.69954Z" fill="#0E2E3F" stroke="#345360" stroke-width="1.0483"/>
<path opacity="0.5" d="M319.847 122.418V123.466H320.896H326.745C331.177 123.466 334.775 127.064 334.775 131.496V163.784C334.775 185.618 317.077 203.326 295.233 203.326H279.142C257.308 203.326 239.6 185.628 239.6 163.784V131.496C239.6 127.064 243.198 123.466 247.63 123.466H251.96H253.008V122.418V105.184C253.008 86.7572 268.001 71.7641 286.428 71.7641C304.854 71.7641 319.847 86.7572 319.847 105.184V122.418ZM265.472 105.184V106.232H265.483V122.418V123.466H266.531H306.356H307.404V122.418V105.184C307.404 93.6188 298.003 84.2179 286.438 84.2179C274.873 84.2179 265.472 93.6188 265.472 105.184Z" fill="#327C85" stroke="#57CACC" stroke-width="2.0966"/>
<path d="M292.547 156.778L292.126 156.976L292.272 157.418L296.563 170.362C297.885 176.137 293.504 181.636 287.581 181.636C281.658 181.636 277.277 176.126 278.599 170.362L282.889 157.418L283.036 156.976L282.615 156.778C278.618 154.901 275.85 150.856 275.85 146.162C275.85 139.679 281.098 134.431 287.581 134.431C294.063 134.431 299.311 139.679 299.311 146.162C299.311 150.866 296.544 154.901 292.547 156.778Z" fill="#0E2E3F" stroke="#57CACC" stroke-width="1.0483"/>
<path d="M131.038 563.239C127.767 563.239 124.549 562.38 121.718 560.744L9.31941 495.854C3.57472 492.531 0 486.346 0 479.711V349.931C0 343.295 3.57472 337.11 9.31941 333.787L121.718 268.897C124.549 267.262 127.767 266.402 131.038 266.402C134.308 266.402 137.527 267.262 140.357 268.897L252.756 333.787C258.5 337.11 262.075 343.295 262.075 349.931V479.711C262.075 486.346 258.5 492.531 252.756 495.854L140.357 560.744C137.527 562.38 134.308 563.239 131.038 563.239Z" fill="black" fill-opacity="0.2"/>
<path d="M124.077 272.968L124.077 272.968L11.6783 337.858C11.6783 337.858 11.6782 337.858 11.6782 337.858C7.37463 340.343 4.71751 344.94 4.71751 349.921V479.7C4.71751 484.67 7.37439 489.268 11.6791 491.764L124.077 556.653C128.381 559.138 133.695 559.138 137.998 556.653L138.261 557.107L137.998 556.653L250.397 491.763C254.701 489.278 257.358 484.681 257.358 479.7V349.921C257.358 344.951 254.701 340.354 250.397 337.858L124.077 272.968ZM124.077 272.968C128.381 270.483 133.695 270.483 137.998 272.968L138.26 272.514L137.998 272.968L250.396 337.857L124.077 272.968Z" fill="#0E2E3F" stroke="#345360" stroke-width="1.0483"/>
<path d="M95.6684 450.83C95.1128 450.83 94.5677 450.526 94.2847 450.002C93.8758 449.237 94.1588 448.283 94.9241 447.874C99.589 445.358 103.919 442.234 107.776 438.576C108.405 437.978 109.401 438.01 109.999 438.639C110.596 439.268 110.565 440.263 109.936 440.861C105.879 444.708 101.329 448 96.4127 450.642C96.1716 450.767 95.92 450.83 95.6684 450.83Z" fill="#57CACC"/>
<path d="M119.077 428.648C118.794 428.648 118.511 428.574 118.259 428.417C117.515 427.966 117.284 427.002 117.735 426.258C120.534 421.666 122.704 416.718 124.172 411.561C125.692 406.235 126.457 400.7 126.457 395.102H126.593C126.719 394.368 126.929 393.656 127.222 392.964C127.704 391.811 128.407 390.783 129.287 389.892C130.178 389.001 131.206 388.309 132.359 387.827C133.554 387.324 134.812 387.072 136.122 387.072C136.992 387.072 137.695 387.775 137.695 388.645C137.695 389.515 136.992 390.217 136.122 390.217C135.252 390.217 134.392 390.385 133.585 390.731C132.81 391.056 132.107 391.528 131.51 392.125C130.912 392.723 130.44 393.425 130.115 394.201C129.78 395.008 129.602 395.857 129.602 396.738H129.581C129.445 402.073 128.648 407.346 127.191 412.441C125.639 417.871 123.364 423.081 120.408 427.914C120.115 428.396 119.591 428.669 119.066 428.669L119.077 428.648Z" fill="#57CACC"/>
<path d="M109.171 458.902C108.636 458.902 108.123 458.629 107.829 458.147C107.378 457.403 107.62 456.438 108.353 455.988C113.375 452.937 118.019 449.268 122.149 445.064C126.29 440.871 129.896 436.164 132.873 431.091C135.903 425.943 138.261 420.419 139.897 414.695C141.585 408.793 142.497 402.661 142.612 396.476V396.318C142.57 395.574 142.402 394.861 142.119 394.18C141.784 393.383 142.151 392.461 142.958 392.115C143.755 391.779 144.677 392.146 145.023 392.953C145.317 393.645 145.526 394.358 145.652 395.092H145.788L145.767 396.706C145.631 403.09 144.677 409.433 142.937 415.544C141.228 421.53 138.754 427.296 135.599 432.673C132.485 437.967 128.722 442.873 124.403 447.255C120.084 451.637 115.241 455.474 109.999 458.661C109.748 458.818 109.465 458.891 109.182 458.891L109.171 458.902Z" fill="#57CACC"/>
<path d="M86.7895 442.622C86.1396 442.622 85.5315 442.213 85.3009 441.563C85.0178 440.745 85.4477 439.844 86.2654 439.56C90.6473 438.04 94.7671 435.85 98.5095 433.051C102.21 430.283 105.449 426.991 108.164 423.249C110.9 419.465 113.028 415.313 114.486 410.9C115.995 406.34 116.75 401.57 116.75 396.727C116.75 394.117 117.264 391.58 118.27 389.19C119.245 386.883 120.639 384.818 122.421 383.036C123.04 382.418 124.036 382.418 124.644 383.036C125.262 383.644 125.262 384.651 124.644 385.259C123.155 386.747 121.981 388.487 121.163 390.416C120.314 392.418 119.884 394.536 119.884 396.727C119.884 401.906 119.067 407.011 117.452 411.885C115.89 416.603 113.616 421.048 110.691 425.094C107.797 429.088 104.328 432.61 100.375 435.566C96.3814 438.554 91.9681 440.892 87.2822 442.527C87.1145 442.59 86.9363 442.611 86.7685 442.611L86.7895 442.622Z" fill="#57CACC"/>
<path d="M144.687 434.623C144.446 434.623 144.194 434.571 143.964 434.445C143.188 434.047 142.895 433.093 143.293 432.327C146.155 426.824 148.367 420.985 149.887 414.978C151.438 408.814 152.266 402.43 152.329 396.014V395.962V395.794C152.214 393.76 151.711 391.758 150.841 389.882C149.981 388.047 148.797 386.401 147.318 384.997C145.84 383.592 144.132 382.481 142.255 381.715C140.305 380.919 138.251 380.52 136.133 380.52C135.263 380.52 134.561 379.818 134.561 378.948C134.561 378.078 135.263 377.375 136.133 377.375C138.659 377.375 141.123 377.858 143.45 378.812C145.694 379.734 147.727 381.045 149.488 382.732C151.25 384.41 152.665 386.37 153.682 388.561C154.657 390.636 155.244 392.838 155.432 395.123H155.495L155.464 396.738C155.348 403.195 154.499 409.579 152.937 415.754C151.365 422.002 149.059 428.061 146.092 433.795C145.809 434.33 145.264 434.644 144.698 434.644L144.687 434.623Z" fill="#57CACC"/>
<path d="M120.744 462.823C120.262 462.823 119.79 462.603 119.486 462.194C118.962 461.502 119.109 460.517 119.8 459.992C124.675 456.344 129.141 452.151 133.093 447.518C133.659 446.857 134.644 446.773 135.305 447.339C135.965 447.906 136.049 448.891 135.483 449.551C131.384 454.363 126.74 458.724 121.677 462.508C121.394 462.718 121.069 462.823 120.733 462.823H120.744Z" fill="#57CACC"/>
<path d="M80.4575 434.372C79.7552 434.372 79.1157 433.889 78.9375 433.176C78.7278 432.338 79.2415 431.478 80.0802 431.269C83.896 430.315 87.5021 428.742 90.8252 426.583C94.0855 424.465 96.9578 421.844 99.3689 418.794C99.9036 418.112 100.899 417.997 101.581 418.532C102.262 419.066 102.378 420.062 101.843 420.744C99.2117 424.067 96.0877 426.918 92.5445 429.224C88.9383 431.573 85.0072 433.292 80.8454 434.319C80.7196 434.351 80.5938 434.372 80.468 434.372H80.4575Z" fill="#57CACC"/>
<path d="M106.498 410.701C106.32 410.701 106.142 410.669 105.974 410.607C105.156 410.313 104.727 409.422 105.02 408.594C106.372 404.789 107.054 400.784 107.054 396.717C107.054 392.649 107.819 389.001 109.339 385.416C110.807 381.957 112.903 378.843 115.576 376.18C118.25 373.507 121.363 371.411 124.812 369.943C128.397 368.423 132.203 367.658 136.113 367.658C140.023 367.658 143.723 368.402 147.267 369.88C150.684 371.306 153.766 373.35 156.429 375.95C159.081 378.55 161.199 381.579 162.698 384.965C163.054 385.762 162.698 386.684 161.901 387.041C161.104 387.397 160.182 387.041 159.825 386.244C158.483 383.225 156.607 380.52 154.227 378.204C151.848 375.876 149.101 374.052 146.061 372.784C142.906 371.463 139.562 370.803 136.123 370.803C132.685 370.803 129.236 371.495 126.049 372.847C122.967 374.157 120.189 376.023 117.809 378.413C115.43 380.793 113.553 383.571 112.243 386.653C110.891 389.85 110.199 393.236 110.199 396.727C110.199 401.161 109.454 405.512 107.976 409.663C107.746 410.303 107.138 410.711 106.498 410.711V410.701Z" fill="#57CACC"/>
<path d="M133.774 464.584C133.345 464.584 132.925 464.416 132.621 464.07C132.034 463.43 132.076 462.434 132.716 461.847C137.171 457.759 141.228 453.209 144.771 448.324C148.346 443.397 151.438 438.103 153.954 432.589C156.512 426.97 158.493 421.069 159.846 415.041C160.034 414.192 160.873 413.668 161.722 413.846C162.571 414.034 163.106 414.873 162.907 415.722C161.512 421.96 159.458 428.061 156.806 433.879C154.206 439.592 151.008 445.064 147.308 450.159C143.639 455.212 139.435 459.919 134.833 464.143C134.529 464.416 134.152 464.563 133.774 464.563V464.584Z" fill="#57CACC"/>
<path d="M75.6041 425.472C74.8388 425.472 74.1679 424.916 74.0526 424.14C73.9163 423.281 74.5138 422.484 75.363 422.348C78.4135 421.876 81.3383 420.869 84.0324 419.36C86.6741 417.882 89.0223 415.963 91.0036 413.678C93.0058 411.372 94.5678 408.762 95.6476 405.921C96.7692 402.985 97.3354 399.893 97.3354 396.727C97.3354 391.507 98.3627 386.433 100.386 381.653C102.346 377.04 105.145 372.889 108.699 369.325C112.263 365.76 116.404 362.961 121.027 361.011C125.807 358.988 130.881 357.961 136.101 357.961C141.322 357.961 146.312 358.967 151.05 360.959C151.847 361.295 152.224 362.217 151.889 363.014C151.553 363.81 150.631 364.188 149.834 363.852C145.484 362.028 140.861 361.106 136.101 361.106C131.342 361.106 126.635 362.049 122.253 363.905C118.008 365.708 114.202 368.276 110.921 371.547C107.651 374.818 105.072 378.633 103.279 382.879C101.424 387.271 100.48 391.926 100.48 396.727C100.48 400.281 99.8408 403.751 98.5933 407.042C97.3772 410.219 95.6266 413.143 93.3937 415.733C91.1714 418.301 88.5401 420.44 85.5839 422.106C82.5543 423.805 79.2836 424.926 75.8452 425.461C75.7613 425.472 75.6879 425.482 75.6041 425.482V425.472Z" fill="#57CACC"/>
<path d="M166.492 433.428C166.303 433.428 166.114 433.397 165.926 433.323C165.118 433.009 164.709 432.097 165.024 431.29C167.152 425.796 168.798 420.073 169.909 414.276C171.052 408.353 171.67 402.262 171.733 396.182C171.66 391.402 170.664 386.81 168.777 382.491C166.953 378.319 164.374 374.566 161.103 371.348C160.485 370.74 160.474 369.744 161.082 369.125C161.69 368.507 162.686 368.496 163.305 369.104C166.858 372.606 169.668 376.684 171.649 381.233C173.568 385.636 174.637 390.29 174.836 395.102H174.878L174.857 396.717C174.763 402.828 174.134 408.929 172.991 414.873C171.838 420.848 170.14 426.75 167.949 432.422C167.708 433.04 167.11 433.428 166.481 433.428H166.492Z" fill="#57CACC"/>
<path d="M148.377 463.483C148.01 463.483 147.643 463.357 147.35 463.095C146.689 462.529 146.627 461.533 147.193 460.873C150.967 456.522 154.384 451.826 157.351 446.909C157.801 446.165 158.766 445.924 159.51 446.375C160.254 446.825 160.496 447.79 160.045 448.534C156.984 453.608 153.451 458.451 149.562 462.927C149.247 463.284 148.818 463.473 148.377 463.473V463.483Z" fill="#57CACC"/>
<path d="M72.2286 416.079C71.39 416.079 70.6981 415.418 70.6562 414.58C70.6142 413.71 71.2851 412.976 72.1552 412.934C74.2623 412.839 76.296 412.347 78.2039 411.466C80.0489 410.607 81.7053 409.432 83.1205 407.954C83.718 407.325 84.7139 407.304 85.3429 407.902C85.9718 408.499 85.9928 409.495 85.3953 410.124C83.7075 411.885 81.7367 413.301 79.5247 414.318C77.2499 415.366 74.8179 415.963 72.2915 416.079C72.2705 416.079 72.2391 416.079 72.2181 416.079H72.2286Z" fill="#57CACC"/>
<path d="M89.2111 398.3C88.341 398.3 87.6387 397.597 87.6387 396.727C87.6387 390.196 88.928 383.854 91.4544 377.868C93.897 372.102 97.3983 366.913 101.854 362.458C106.309 358.003 111.498 354.502 117.264 352.059C123.239 349.522 129.581 348.243 136.123 348.243C142.664 348.243 148.912 349.512 154.845 352.007C160.579 354.418 165.748 357.867 170.192 362.269C174.637 366.662 178.138 371.788 180.623 377.491C180.969 378.287 180.602 379.21 179.805 379.556C179.009 379.902 178.086 379.535 177.74 378.738C175.423 373.402 172.142 368.612 167.991 364.502C163.829 360.393 159.007 357.154 153.64 354.9C148.084 352.562 142.192 351.378 136.133 351.378C130.074 351.378 124.099 352.583 118.501 354.942C113.102 357.227 108.259 360.498 104.087 364.67C99.9143 368.842 96.6435 373.685 94.3583 379.084C91.9891 384.672 90.794 390.605 90.794 396.717C90.794 397.587 90.0916 398.289 89.2216 398.289L89.2111 398.3Z" fill="#57CACC"/>
<path d="M164.521 458.242C164.228 458.242 163.923 458.158 163.651 457.98C162.928 457.497 162.728 456.522 163.211 455.799C166.052 451.512 168.609 446.993 170.811 442.37C173.044 437.684 174.952 432.799 176.493 427.851C178.055 422.82 179.271 417.63 180.088 412.42C180.927 407.106 181.378 401.654 181.43 396.224L181.451 395.102H181.891C182.478 394.494 183.59 394.515 184.156 395.102H184.596L184.575 396.717C184.502 402.158 184.04 407.598 183.202 412.903C182.353 418.259 181.116 423.606 179.501 428.784C177.918 433.879 175.948 438.9 173.652 443.723C171.387 448.482 168.756 453.126 165.831 457.539C165.527 458.001 165.024 458.242 164.521 458.242Z" fill="#57CACC"/>
<path d="M454.962 665.973C451.692 665.973 448.473 665.113 445.643 663.478L333.244 598.588C327.5 595.265 323.925 589.08 323.925 582.444V452.664C323.925 446.029 327.5 439.844 333.244 436.521L445.643 371.631C448.473 369.995 451.692 369.136 454.962 369.136C458.233 369.136 461.451 369.995 464.282 371.631L576.681 436.521C582.425 439.844 586 446.029 586 452.664V582.444C586 589.08 582.425 595.265 576.681 598.588L464.282 663.478C461.451 665.113 458.233 665.973 454.962 665.973Z" fill="black" fill-opacity="0.2"/>
<path d="M462.185 375.248L461.923 375.701C457.62 373.216 452.305 373.216 448.002 375.701L448.002 375.702L335.603 440.591C335.603 440.591 335.603 440.591 335.603 440.591C331.299 443.077 328.642 447.673 328.642 452.654V582.434C328.642 587.404 331.299 592.001 335.604 594.497L448.002 659.386C452.305 661.871 457.62 661.871 461.923 659.386L462.185 659.84L461.923 659.386L574.322 594.496C578.626 592.011 581.283 587.415 581.283 582.434V452.654C581.283 447.684 578.626 443.087 574.322 440.591L462.185 375.248ZM462.185 375.248L461.923 375.702L574.321 440.591L462.185 375.248Z" fill="#0E2E3F" stroke="#345360" stroke-width="1.0483"/>
<g opacity="0.5">
<path d="M504.724 489.386L504.671 489.959C504.05 496.579 502.556 506.797 498.987 517.882L498.987 517.883C491.184 542.101 477.218 560.161 457.457 571.503L504.724 489.386ZM504.724 489.386H504.683L504.87 487.434L504.911 487.003L504.495 486.881L502.063 486.168L502.063 486.168C483.248 480.661 467.681 469.86 457.939 461.769C457.939 461.769 457.939 461.769 457.939 461.769L455.98 460.135L455.644 459.854L455.308 460.135L453.349 461.769C453.349 461.769 453.349 461.769 453.348 461.769C443.607 469.86 428.051 480.661 409.225 486.168L409.224 486.168L406.792 486.881L406.377 487.003L406.418 487.434L406.659 489.96C406.659 489.96 406.659 489.96 406.659 489.96C407.29 496.589 408.774 506.808 412.343 517.883C420.146 542.102 434.112 560.161 453.873 571.503L455.403 572.384L455.665 572.534L455.926 572.384L457.456 571.503L504.724 489.386ZM399.417 481.336C399.419 481.196 399.421 481.074 399.423 480.969C415.437 478.467 429.542 470.679 439.656 463.507C444.763 459.886 448.86 456.417 451.681 453.851C453.092 452.569 454.184 451.512 454.925 450.774C455.239 450.461 455.49 450.206 455.675 450.015C455.86 450.206 456.111 450.461 456.426 450.774C457.166 451.512 458.259 452.569 459.67 453.851C462.491 456.417 466.588 459.886 471.694 463.507C481.808 470.679 495.914 478.467 511.928 480.969C511.93 481.073 511.932 481.196 511.933 481.336C511.939 481.864 511.94 482.643 511.92 483.646C511.88 485.652 511.756 488.553 511.423 492.124C510.755 499.267 509.247 509.085 505.887 519.783C499.183 541.126 485.119 565.935 455.675 580.049C426.231 565.941 412.168 541.131 405.464 519.787C402.103 509.088 400.595 499.269 399.928 492.125C399.594 488.554 399.471 485.653 399.431 483.646C399.411 482.643 399.412 481.864 399.417 481.336Z" fill="#57CACC" stroke="#57CACC" stroke-width="1.0483"/>
<path d="M413.576 491.819C414.289 498.035 415.735 506.631 418.702 515.835C425.778 537.808 438.211 554.276 455.665 564.812C473.13 554.276 485.552 537.808 492.628 515.835C495.595 506.631 497.041 498.035 497.754 491.819C480.153 486.189 465.498 476.409 455.654 468.504C445.811 476.409 431.166 486.189 413.555 491.819H413.576Z" fill="#57CACC"/>
</g>
<path d="M463.255 508.895V509.419H463.258C463.041 512.599 460.861 515.239 457.922 516.141L457.421 516.295L457.575 516.797L459.716 523.739C460.18 526.258 458.251 528.582 455.686 528.582C453.119 528.582 451.183 526.256 451.656 523.74L453.797 516.797L453.951 516.295L453.45 516.141C450.351 515.19 448.096 512.306 448.096 508.895C448.096 504.709 451.489 501.316 455.676 501.316C459.862 501.316 463.255 504.709 463.255 508.895Z" fill="#0E2E3F" stroke="#57CACC" stroke-width="1.0483"/>
</svg>
