<svg width="72" height="72" viewBox="0 0 72 72" fill="none" xmlns="http://www.w3.org/2000/svg">
<path d="M36 0C36.682 0 37.336 0.270917 37.8183 0.753154C38.3005 1.23539 38.5714 1.88944 38.5714 2.57143V18C38.5714 18.682 38.3005 19.336 37.8183 19.8183C37.336 20.3005 36.682 20.5714 36 20.5714C35.318 20.5714 34.664 20.3005 34.1817 19.8183C33.6995 19.336 33.4286 18.682 33.4286 18V2.57143C33.4286 1.88944 33.6995 1.23539 34.1817 0.753154C34.664 0.270917 35.318 0 36 0ZM36 51.4286C36.682 51.4286 37.336 51.6995 37.8183 52.1817C38.3005 52.664 38.5714 53.318 38.5714 54V69.4286C38.5714 70.1106 38.3005 70.7646 37.8183 71.2468C37.336 71.7291 36.682 72 36 72C35.318 72 34.664 71.7291 34.1817 71.2468C33.6995 70.7646 33.4286 70.1106 33.4286 69.4286V54C33.4286 53.318 33.6995 52.664 34.1817 52.1817C34.664 51.6995 35.318 51.4286 36 51.4286ZM72 36C72 36.682 71.7291 37.336 71.2468 37.8183C70.7646 38.3005 70.1106 38.5714 69.4286 38.5714H54C53.318 38.5714 52.664 38.3005 52.1817 37.8183C51.6995 37.336 51.4286 36.682 51.4286 36C51.4286 35.318 51.6995 34.664 52.1817 34.1817C52.664 33.6995 53.318 33.4286 54 33.4286H69.4286C70.1106 33.4286 70.7646 33.6995 71.2468 34.1817C71.7291 34.664 72 35.318 72 36ZM20.5714 36C20.5714 36.682 20.3005 37.336 19.8183 37.8183C19.336 38.3005 18.682 38.5714 18 38.5714H2.57143C1.88944 38.5714 1.23539 38.3005 0.753154 37.8183C0.270917 37.336 0 36.682 0 36C0 35.318 0.270917 34.664 0.753154 34.1817C1.23539 33.6995 1.88944 33.4286 2.57143 33.4286H18C18.682 33.4286 19.336 33.6995 19.8183 34.1817C20.3005 34.664 20.5714 35.318 20.5714 36ZM10.5429 10.5429C11.0251 10.0608 11.679 9.78998 12.3609 9.78998C13.0427 9.78998 13.6966 10.0608 14.1789 10.5429L25.0971 21.456C25.5655 21.941 25.8247 22.5905 25.8189 23.2647C25.813 23.939 25.5426 24.5839 25.0658 25.0607C24.5891 25.5374 23.9441 25.8079 23.2699 25.8137C22.5957 25.8196 21.9461 25.5604 21.4611 25.092L10.5429 14.1789C10.0608 13.6966 9.78998 13.0427 9.78998 12.3609C9.78998 11.679 10.0608 11.0251 10.5429 10.5429ZM46.908 46.908C47.3902 46.4259 48.0441 46.1551 48.726 46.1551C49.4078 46.1551 50.0618 46.4259 50.544 46.908L61.4571 57.8211C61.9255 58.3061 62.1847 58.9557 62.1789 59.6299C62.173 60.3041 61.9026 60.9491 61.4258 61.4258C60.9491 61.9026 60.3041 62.173 59.6299 62.1789C58.9557 62.1847 58.3061 61.9255 57.8211 61.4571L46.908 50.544C46.4259 50.0618 46.1551 49.4078 46.1551 48.726C46.1551 48.0441 46.4259 47.3902 46.908 46.908ZM61.4571 10.548C61.9376 11.03 62.2075 11.6828 62.2075 12.3634C62.2075 13.044 61.9376 13.6969 61.4571 14.1789L50.544 25.0971C50.059 25.5655 49.4095 25.8247 48.7353 25.8189C48.061 25.813 47.4161 25.5426 46.9393 25.0658C46.4626 24.5891 46.1921 23.9441 46.1863 23.2699C46.1804 22.5957 46.4396 21.9461 46.908 21.4611L57.8211 10.548C58.3034 10.0659 58.9573 9.79512 59.6391 9.79512C60.321 9.79512 60.9749 10.0659 61.4571 10.548ZM25.092 46.908C25.5741 47.3902 25.8449 48.0441 25.8449 48.726C25.8449 49.4078 25.5741 50.0618 25.092 50.544L14.1789 61.4571C13.6939 61.9255 13.0443 62.1847 12.3701 62.1789C11.6959 62.173 11.0509 61.9026 10.5742 61.4258C10.0974 60.9491 9.82698 60.3041 9.82112 59.6299C9.81526 58.9557 10.0745 58.3061 10.5429 57.8211L21.456 46.908C21.9382 46.4259 22.5921 46.1551 23.274 46.1551C23.9558 46.1551 24.6098 46.4259 25.092 46.908Z" fill="white"/>
</svg>
